<?xml version="1.0" encoding="utf-8" standalone="no"?>
<!DOCTYPE svg PUBLIC "-//W3C//DTD SVG 1.1//EN"
  "http://www.w3.org/Graphics/SVG/1.1/DTD/svg11.dtd">
<svg xmlns:xlink="http://www.w3.org/1999/xlink" width="888.354062pt" height="526.324063pt" viewBox="0 0 888.354062 526.324063" xmlns="http://www.w3.org/2000/svg" version="1.1">
 <metadata>
  <rdf:RDF xmlns:dc="http://purl.org/dc/elements/1.1/" xmlns:cc="http://creativecommons.org/ns#" xmlns:rdf="http://www.w3.org/1999/02/22-rdf-syntax-ns#">
   <cc:Work>
    <dc:type rdf:resource="http://purl.org/dc/dcmitype/StillImage"/>
    <dc:date>2026-06-20T23:35:07.136867</dc:date>
    <dc:format>image/svg+xml</dc:format>
    <dc:creator>
     <cc:Agent>
      <dc:title>Matplotlib v3.10.9, https://matplotlib.org/</dc:title>
     </cc:Agent>
    </dc:creator>
   </cc:Work>
  </rdf:RDF>
 </metadata>
 <defs>
  <style type="text/css">*{stroke-linejoin: round; stroke-linecap: butt}</style>
 </defs>
 <g id="figure_1">
  <g id="patch_1">
   <path d="M 0 526.324063 
L 888.354062 526.324063 
L 888.354062 0 
L 0 0 
z
" style="fill: #ffffff"/>
  </g>
  <g id="axes_1">
   <g id="patch_2">
    <path d="M 57.474063 253.330435 
L 881.154063 253.330435 
L 881.154063 34.2 
L 57.474063 34.2 
z
" style="fill: #f8fafc"/>
   </g>
   <g id="matplotlib.axis_1">
    <g id="xtick_1">
     <g id="line2d_1">
      <path d="M 57.474063 253.330435 
L 57.474063 34.2 
" clip-path="url(#pccb1581fb8)" style="fill: none; stroke-dasharray: 0.5,0.825; stroke-dashoffset: 0; stroke: #cbd5e1; stroke-width: 0.5"/>
     </g>
     <g id="line2d_2">
      <defs>
       <path id="m873f4bed93" d="M 0 0 
L 0 3.5 
" style="stroke: #1e293b; stroke-width: 0.8"/>
      </defs>
      <g>
       <use xlink:href="#m873f4bed93" x="57.474063" y="253.330435" style="fill: #1e293b; stroke: #1e293b; stroke-width: 0.8"/>
      </g>
     </g>
    </g>
    <g id="xtick_2">
     <g id="line2d_3">
      <path d="M 194.983244 253.330435 
L 194.983244 34.2 
" clip-path="url(#pccb1581fb8)" style="fill: none; stroke-dasharray: 0.5,0.825; stroke-dashoffset: 0; stroke: #cbd5e1; stroke-width: 0.5"/>
     </g>
     <g id="line2d_4">
      <g>
       <use xlink:href="#m873f4bed93" x="194.983244" y="253.330435" style="fill: #1e293b; stroke: #1e293b; stroke-width: 0.8"/>
      </g>
     </g>
    </g>
    <g id="xtick_3">
     <g id="line2d_5">
      <path d="M 332.492426 253.330435 
L 332.492426 34.2 
" clip-path="url(#pccb1581fb8)" style="fill: none; stroke-dasharray: 0.5,0.825; stroke-dashoffset: 0; stroke: #cbd5e1; stroke-width: 0.5"/>
     </g>
     <g id="line2d_6">
      <g>
       <use xlink:href="#m873f4bed93" x="332.492426" y="253.330435" style="fill: #1e293b; stroke: #1e293b; stroke-width: 0.8"/>
      </g>
     </g>
    </g>
    <g id="xtick_4">
     <g id="line2d_7">
      <path d="M 470.001608 253.330435 
L 470.001608 34.2 
" clip-path="url(#pccb1581fb8)" style="fill: none; stroke-dasharray: 0.5,0.825; stroke-dashoffset: 0; stroke: #cbd5e1; stroke-width: 0.5"/>
     </g>
     <g id="line2d_8">
      <g>
       <use xlink:href="#m873f4bed93" x="470.001608" y="253.330435" style="fill: #1e293b; stroke: #1e293b; stroke-width: 0.8"/>
      </g>
     </g>
    </g>
    <g id="xtick_5">
     <g id="line2d_9">
      <path d="M 607.51079 253.330435 
L 607.51079 34.2 
" clip-path="url(#pccb1581fb8)" style="fill: none; stroke-dasharray: 0.5,0.825; stroke-dashoffset: 0; stroke: #cbd5e1; stroke-width: 0.5"/>
     </g>
     <g id="line2d_10">
      <g>
       <use xlink:href="#m873f4bed93" x="607.51079" y="253.330435" style="fill: #1e293b; stroke: #1e293b; stroke-width: 0.8"/>
      </g>
     </g>
    </g>
    <g id="xtick_6">
     <g id="line2d_11">
      <path d="M 745.019972 253.330435 
L 745.019972 34.2 
" clip-path="url(#pccb1581fb8)" style="fill: none; stroke-dasharray: 0.5,0.825; stroke-dashoffset: 0; stroke: #cbd5e1; stroke-width: 0.5"/>
     </g>
     <g id="line2d_12">
      <g>
       <use xlink:href="#m873f4bed93" x="745.019972" y="253.330435" style="fill: #1e293b; stroke: #1e293b; stroke-width: 0.8"/>
      </g>
     </g>
    </g>
   </g>
   <g id="matplotlib.axis_2">
    <g id="ytick_1">
     <g id="line2d_13">
      <path d="M 57.474063 243.36996 
L 881.154063 243.36996 
" clip-path="url(#pccb1581fb8)" style="fill: none; stroke-dasharray: 0.5,0.825; stroke-dashoffset: 0; stroke: #cbd5e1; stroke-width: 0.5"/>
     </g>
     <g id="line2d_14">
      <defs>
       <path id="mf91532ecca" d="M 0 0 
L -3.5 0 
" style="stroke: #1e293b; stroke-width: 0.8"/>
      </defs>
      <g>
       <use xlink:href="#mf91532ecca" x="57.474063" y="243.36996" style="fill: #1e293b; stroke: #1e293b; stroke-width: 0.8"/>
      </g>
     </g>
     <g id="text_1">
      <!-- 2.395 -->
      <g style="fill: #1e293b" transform="translate(21.845938 247.169179) scale(0.1 -0.1)">
       <defs>
        <path id="DejaVuSans-32" d="M 1228 531 
L 3431 531 
L 3431 0 
L 469 0 
L 469 531 
Q 828 903 1448 1529 
Q 2069 2156 2228 2338 
Q 2531 2678 2651 2914 
Q 2772 3150 2772 3378 
Q 2772 3750 2511 3984 
Q 2250 4219 1831 4219 
Q 1534 4219 1204 4116 
Q 875 4013 500 3803 
L 500 4441 
Q 881 4594 1212 4672 
Q 1544 4750 1819 4750 
Q 2544 4750 2975 4387 
Q 3406 4025 3406 3419 
Q 3406 3131 3298 2873 
Q 3191 2616 2906 2266 
Q 2828 2175 2409 1742 
Q 1991 1309 1228 531 
z
" transform="scale(0.015625)"/>
        <path id="DejaVuSans-2e" d="M 684 794 
L 1344 794 
L 1344 0 
L 684 0 
L 684 794 
z
" transform="scale(0.015625)"/>
        <path id="DejaVuSans-33" d="M 2597 2516 
Q 3050 2419 3304 2112 
Q 3559 1806 3559 1356 
Q 3559 666 3084 287 
Q 2609 -91 1734 -91 
Q 1441 -91 1130 -33 
Q 819 25 488 141 
L 488 750 
Q 750 597 1062 519 
Q 1375 441 1716 441 
Q 2309 441 2620 675 
Q 2931 909 2931 1356 
Q 2931 1769 2642 2001 
Q 2353 2234 1838 2234 
L 1294 2234 
L 1294 2753 
L 1863 2753 
Q 2328 2753 2575 2939 
Q 2822 3125 2822 3475 
Q 2822 3834 2567 4026 
Q 2313 4219 1838 4219 
Q 1578 4219 1281 4162 
Q 984 4106 628 3988 
L 628 4550 
Q 988 4650 1302 4700 
Q 1616 4750 1894 4750 
Q 2613 4750 3031 4423 
Q 3450 4097 3450 3541 
Q 3450 3153 3228 2886 
Q 3006 2619 2597 2516 
z
" transform="scale(0.015625)"/>
        <path id="DejaVuSans-39" d="M 703 97 
L 703 672 
Q 941 559 1184 500 
Q 1428 441 1663 441 
Q 2288 441 2617 861 
Q 2947 1281 2994 2138 
Q 2813 1869 2534 1725 
Q 2256 1581 1919 1581 
Q 1219 1581 811 2004 
Q 403 2428 403 3163 
Q 403 3881 828 4315 
Q 1253 4750 1959 4750 
Q 2769 4750 3195 4129 
Q 3622 3509 3622 2328 
Q 3622 1225 3098 567 
Q 2575 -91 1691 -91 
Q 1453 -91 1209 -44 
Q 966 3 703 97 
z
M 1959 2075 
Q 2384 2075 2632 2365 
Q 2881 2656 2881 3163 
Q 2881 3666 2632 3958 
Q 2384 4250 1959 4250 
Q 1534 4250 1286 3958 
Q 1038 3666 1038 3163 
Q 1038 2656 1286 2365 
Q 1534 2075 1959 2075 
z
" transform="scale(0.015625)"/>
        <path id="DejaVuSans-35" d="M 691 4666 
L 3169 4666 
L 3169 4134 
L 1269 4134 
L 1269 2991 
Q 1406 3038 1543 3061 
Q 1681 3084 1819 3084 
Q 2600 3084 3056 2656 
Q 3513 2228 3513 1497 
Q 3513 744 3044 326 
Q 2575 -91 1722 -91 
Q 1428 -91 1123 -41 
Q 819 9 494 109 
L 494 744 
Q 775 591 1075 516 
Q 1375 441 1709 441 
Q 2250 441 2565 725 
Q 2881 1009 2881 1497 
Q 2881 1984 2565 2268 
Q 2250 2553 1709 2553 
Q 1456 2553 1204 2497 
Q 953 2441 691 2322 
L 691 4666 
z
" transform="scale(0.015625)"/>
       </defs>
       <use xlink:href="#DejaVuSans-32"/>
       <use xlink:href="#DejaVuSans-2e" transform="translate(63.623047 0)"/>
       <use xlink:href="#DejaVuSans-33" transform="translate(95.410156 0)"/>
       <use xlink:href="#DejaVuSans-39" transform="translate(159.033203 0)"/>
       <use xlink:href="#DejaVuSans-35" transform="translate(222.65625 0)"/>
      </g>
     </g>
    </g>
    <g id="ytick_2">
     <g id="line2d_15">
      <path d="M 57.474063 216.28959 
L 881.154063 216.28959 
" clip-path="url(#pccb1581fb8)" style="fill: none; stroke-dasharray: 0.5,0.825; stroke-dashoffset: 0; stroke: #cbd5e1; stroke-width: 0.5"/>
     </g>
     <g id="line2d_16">
      <g>
       <use xlink:href="#mf91532ecca" x="57.474063" y="216.28959" style="fill: #1e293b; stroke: #1e293b; stroke-width: 0.8"/>
      </g>
     </g>
     <g id="text_2">
      <!-- 2.396 -->
      <g style="fill: #1e293b" transform="translate(21.845938 220.088809) scale(0.1 -0.1)">
       <defs>
        <path id="DejaVuSans-36" d="M 2113 2584 
Q 1688 2584 1439 2293 
Q 1191 2003 1191 1497 
Q 1191 994 1439 701 
Q 1688 409 2113 409 
Q 2538 409 2786 701 
Q 3034 994 3034 1497 
Q 3034 2003 2786 2293 
Q 2538 2584 2113 2584 
z
M 3366 4563 
L 3366 3988 
Q 3128 4100 2886 4159 
Q 2644 4219 2406 4219 
Q 1781 4219 1451 3797 
Q 1122 3375 1075 2522 
Q 1259 2794 1537 2939 
Q 1816 3084 2150 3084 
Q 2853 3084 3261 2657 
Q 3669 2231 3669 1497 
Q 3669 778 3244 343 
Q 2819 -91 2113 -91 
Q 1303 -91 875 529 
Q 447 1150 447 2328 
Q 447 3434 972 4092 
Q 1497 4750 2381 4750 
Q 2619 4750 2861 4703 
Q 3103 4656 3366 4563 
z
" transform="scale(0.015625)"/>
       </defs>
       <use xlink:href="#DejaVuSans-32"/>
       <use xlink:href="#DejaVuSans-2e" transform="translate(63.623047 0)"/>
       <use xlink:href="#DejaVuSans-33" transform="translate(95.410156 0)"/>
       <use xlink:href="#DejaVuSans-39" transform="translate(159.033203 0)"/>
       <use xlink:href="#DejaVuSans-36" transform="translate(222.65625 0)"/>
      </g>
     </g>
    </g>
    <g id="ytick_3">
     <g id="line2d_17">
      <path d="M 57.474063 189.209219 
L 881.154063 189.209219 
" clip-path="url(#pccb1581fb8)" style="fill: none; stroke-dasharray: 0.5,0.825; stroke-dashoffset: 0; stroke: #cbd5e1; stroke-width: 0.5"/>
     </g>
     <g id="line2d_18">
      <g>
       <use xlink:href="#mf91532ecca" x="57.474063" y="189.209219" style="fill: #1e293b; stroke: #1e293b; stroke-width: 0.8"/>
      </g>
     </g>
     <g id="text_3">
      <!-- 2.397 -->
      <g style="fill: #1e293b" transform="translate(21.845938 193.008438) scale(0.1 -0.1)">
       <defs>
        <path id="DejaVuSans-37" d="M 525 4666 
L 3525 4666 
L 3525 4397 
L 1831 0 
L 1172 0 
L 2766 4134 
L 525 4134 
L 525 4666 
z
" transform="scale(0.015625)"/>
       </defs>
       <use xlink:href="#DejaVuSans-32"/>
       <use xlink:href="#DejaVuSans-2e" transform="translate(63.623047 0)"/>
       <use xlink:href="#DejaVuSans-33" transform="translate(95.410156 0)"/>
       <use xlink:href="#DejaVuSans-39" transform="translate(159.033203 0)"/>
       <use xlink:href="#DejaVuSans-37" transform="translate(222.65625 0)"/>
      </g>
     </g>
    </g>
    <g id="ytick_4">
     <g id="line2d_19">
      <path d="M 57.474063 162.128849 
L 881.154063 162.128849 
" clip-path="url(#pccb1581fb8)" style="fill: none; stroke-dasharray: 0.5,0.825; stroke-dashoffset: 0; stroke: #cbd5e1; stroke-width: 0.5"/>
     </g>
     <g id="line2d_20">
      <g>
       <use xlink:href="#mf91532ecca" x="57.474063" y="162.128849" style="fill: #1e293b; stroke: #1e293b; stroke-width: 0.8"/>
      </g>
     </g>
     <g id="text_4">
      <!-- 2.398 -->
      <g style="fill: #1e293b" transform="translate(21.845938 165.928067) scale(0.1 -0.1)">
       <defs>
        <path id="DejaVuSans-38" d="M 2034 2216 
Q 1584 2216 1326 1975 
Q 1069 1734 1069 1313 
Q 1069 891 1326 650 
Q 1584 409 2034 409 
Q 2484 409 2743 651 
Q 3003 894 3003 1313 
Q 3003 1734 2745 1975 
Q 2488 2216 2034 2216 
z
M 1403 2484 
Q 997 2584 770 2862 
Q 544 3141 544 3541 
Q 544 4100 942 4425 
Q 1341 4750 2034 4750 
Q 2731 4750 3128 4425 
Q 3525 4100 3525 3541 
Q 3525 3141 3298 2862 
Q 3072 2584 2669 2484 
Q 3125 2378 3379 2068 
Q 3634 1759 3634 1313 
Q 3634 634 3220 271 
Q 2806 -91 2034 -91 
Q 1263 -91 848 271 
Q 434 634 434 1313 
Q 434 1759 690 2068 
Q 947 2378 1403 2484 
z
M 1172 3481 
Q 1172 3119 1398 2916 
Q 1625 2713 2034 2713 
Q 2441 2713 2670 2916 
Q 2900 3119 2900 3481 
Q 2900 3844 2670 4047 
Q 2441 4250 2034 4250 
Q 1625 4250 1398 4047 
Q 1172 3844 1172 3481 
z
" transform="scale(0.015625)"/>
       </defs>
       <use xlink:href="#DejaVuSans-32"/>
       <use xlink:href="#DejaVuSans-2e" transform="translate(63.623047 0)"/>
       <use xlink:href="#DejaVuSans-33" transform="translate(95.410156 0)"/>
       <use xlink:href="#DejaVuSans-39" transform="translate(159.033203 0)"/>
       <use xlink:href="#DejaVuSans-38" transform="translate(222.65625 0)"/>
      </g>
     </g>
    </g>
    <g id="ytick_5">
     <g id="line2d_21">
      <path d="M 57.474063 135.048478 
L 881.154063 135.048478 
" clip-path="url(#pccb1581fb8)" style="fill: none; stroke-dasharray: 0.5,0.825; stroke-dashoffset: 0; stroke: #cbd5e1; stroke-width: 0.5"/>
     </g>
     <g id="line2d_22">
      <g>
       <use xlink:href="#mf91532ecca" x="57.474063" y="135.048478" style="fill: #1e293b; stroke: #1e293b; stroke-width: 0.8"/>
      </g>
     </g>
     <g id="text_5">
      <!-- 2.399 -->
      <g style="fill: #1e293b" transform="translate(21.845938 138.847697) scale(0.1 -0.1)">
       <use xlink:href="#DejaVuSans-32"/>
       <use xlink:href="#DejaVuSans-2e" transform="translate(63.623047 0)"/>
       <use xlink:href="#DejaVuSans-33" transform="translate(95.410156 0)"/>
       <use xlink:href="#DejaVuSans-39" transform="translate(159.033203 0)"/>
       <use xlink:href="#DejaVuSans-39" transform="translate(222.65625 0)"/>
      </g>
     </g>
    </g>
    <g id="ytick_6">
     <g id="line2d_23">
      <path d="M 57.474063 107.968107 
L 881.154063 107.968107 
" clip-path="url(#pccb1581fb8)" style="fill: none; stroke-dasharray: 0.5,0.825; stroke-dashoffset: 0; stroke: #cbd5e1; stroke-width: 0.5"/>
     </g>
     <g id="line2d_24">
      <g>
       <use xlink:href="#mf91532ecca" x="57.474063" y="107.968107" style="fill: #1e293b; stroke: #1e293b; stroke-width: 0.8"/>
      </g>
     </g>
     <g id="text_6">
      <!-- 2.400 -->
      <g style="fill: #1e293b" transform="translate(21.845938 111.767326) scale(0.1 -0.1)">
       <defs>
        <path id="DejaVuSans-34" d="M 2419 4116 
L 825 1625 
L 2419 1625 
L 2419 4116 
z
M 2253 4666 
L 3047 4666 
L 3047 1625 
L 3713 1625 
L 3713 1100 
L 3047 1100 
L 3047 0 
L 2419 0 
L 2419 1100 
L 313 1100 
L 313 1709 
L 2253 4666 
z
" transform="scale(0.015625)"/>
        <path id="DejaVuSans-30" d="M 2034 4250 
Q 1547 4250 1301 3770 
Q 1056 3291 1056 2328 
Q 1056 1369 1301 889 
Q 1547 409 2034 409 
Q 2525 409 2770 889 
Q 3016 1369 3016 2328 
Q 3016 3291 2770 3770 
Q 2525 4250 2034 4250 
z
M 2034 4750 
Q 2819 4750 3233 4129 
Q 3647 3509 3647 2328 
Q 3647 1150 3233 529 
Q 2819 -91 2034 -91 
Q 1250 -91 836 529 
Q 422 1150 422 2328 
Q 422 3509 836 4129 
Q 1250 4750 2034 4750 
z
" transform="scale(0.015625)"/>
       </defs>
       <use xlink:href="#DejaVuSans-32"/>
       <use xlink:href="#DejaVuSans-2e" transform="translate(63.623047 0)"/>
       <use xlink:href="#DejaVuSans-34" transform="translate(95.410156 0)"/>
       <use xlink:href="#DejaVuSans-30" transform="translate(159.033203 0)"/>
       <use xlink:href="#DejaVuSans-30" transform="translate(222.65625 0)"/>
      </g>
     </g>
    </g>
    <g id="ytick_7">
     <g id="line2d_25">
      <path d="M 57.474063 80.887737 
L 881.154063 80.887737 
" clip-path="url(#pccb1581fb8)" style="fill: none; stroke-dasharray: 0.5,0.825; stroke-dashoffset: 0; stroke: #cbd5e1; stroke-width: 0.5"/>
     </g>
     <g id="line2d_26">
      <g>
       <use xlink:href="#mf91532ecca" x="57.474063" y="80.887737" style="fill: #1e293b; stroke: #1e293b; stroke-width: 0.8"/>
      </g>
     </g>
     <g id="text_7">
      <!-- 2.401 -->
      <g style="fill: #1e293b" transform="translate(21.845938 84.686955) scale(0.1 -0.1)">
       <defs>
        <path id="DejaVuSans-31" d="M 794 531 
L 1825 531 
L 1825 4091 
L 703 3866 
L 703 4441 
L 1819 4666 
L 2450 4666 
L 2450 531 
L 3481 531 
L 3481 0 
L 794 0 
L 794 531 
z
" transform="scale(0.015625)"/>
       </defs>
       <use xlink:href="#DejaVuSans-32"/>
       <use xlink:href="#DejaVuSans-2e" transform="translate(63.623047 0)"/>
       <use xlink:href="#DejaVuSans-34" transform="translate(95.410156 0)"/>
       <use xlink:href="#DejaVuSans-30" transform="translate(159.033203 0)"/>
       <use xlink:href="#DejaVuSans-31" transform="translate(222.65625 0)"/>
      </g>
     </g>
    </g>
    <g id="ytick_8">
     <g id="line2d_27">
      <path d="M 57.474063 53.807366 
L 881.154063 53.807366 
" clip-path="url(#pccb1581fb8)" style="fill: none; stroke-dasharray: 0.5,0.825; stroke-dashoffset: 0; stroke: #cbd5e1; stroke-width: 0.5"/>
     </g>
     <g id="line2d_28">
      <g>
       <use xlink:href="#mf91532ecca" x="57.474063" y="53.807366" style="fill: #1e293b; stroke: #1e293b; stroke-width: 0.8"/>
      </g>
     </g>
     <g id="text_8">
      <!-- 2.402 -->
      <g style="fill: #1e293b" transform="translate(21.845938 57.606585) scale(0.1 -0.1)">
       <use xlink:href="#DejaVuSans-32"/>
       <use xlink:href="#DejaVuSans-2e" transform="translate(63.623047 0)"/>
       <use xlink:href="#DejaVuSans-34" transform="translate(95.410156 0)"/>
       <use xlink:href="#DejaVuSans-30" transform="translate(159.033203 0)"/>
       <use xlink:href="#DejaVuSans-32" transform="translate(222.65625 0)"/>
      </g>
     </g>
    </g>
    <g id="text_9">
     <!-- Frequency (GHz) -->
     <g style="fill: #1e293b" transform="translate(15.558281 189.502014) rotate(-90) scale(0.11 -0.11)">
      <defs>
       <path id="DejaVuSans-46" d="M 628 4666 
L 3309 4666 
L 3309 4134 
L 1259 4134 
L 1259 2759 
L 3109 2759 
L 3109 2228 
L 1259 2228 
L 1259 0 
L 628 0 
L 628 4666 
z
" transform="scale(0.015625)"/>
       <path id="DejaVuSans-72" d="M 2631 2963 
Q 2534 3019 2420 3045 
Q 2306 3072 2169 3072 
Q 1681 3072 1420 2755 
Q 1159 2438 1159 1844 
L 1159 0 
L 581 0 
L 581 3500 
L 1159 3500 
L 1159 2956 
Q 1341 3275 1631 3429 
Q 1922 3584 2338 3584 
Q 2397 3584 2469 3576 
Q 2541 3569 2628 3553 
L 2631 2963 
z
" transform="scale(0.015625)"/>
       <path id="DejaVuSans-65" d="M 3597 1894 
L 3597 1613 
L 953 1613 
Q 991 1019 1311 708 
Q 1631 397 2203 397 
Q 2534 397 2845 478 
Q 3156 559 3463 722 
L 3463 178 
Q 3153 47 2828 -22 
Q 2503 -91 2169 -91 
Q 1331 -91 842 396 
Q 353 884 353 1716 
Q 353 2575 817 3079 
Q 1281 3584 2069 3584 
Q 2775 3584 3186 3129 
Q 3597 2675 3597 1894 
z
M 3022 2063 
Q 3016 2534 2758 2815 
Q 2500 3097 2075 3097 
Q 1594 3097 1305 2825 
Q 1016 2553 972 2059 
L 3022 2063 
z
" transform="scale(0.015625)"/>
       <path id="DejaVuSans-71" d="M 947 1747 
Q 947 1113 1208 752 
Q 1469 391 1925 391 
Q 2381 391 2643 752 
Q 2906 1113 2906 1747 
Q 2906 2381 2643 2742 
Q 2381 3103 1925 3103 
Q 1469 3103 1208 2742 
Q 947 2381 947 1747 
z
M 2906 525 
Q 2725 213 2448 61 
Q 2172 -91 1784 -91 
Q 1150 -91 751 415 
Q 353 922 353 1747 
Q 353 2572 751 3078 
Q 1150 3584 1784 3584 
Q 2172 3584 2448 3432 
Q 2725 3281 2906 2969 
L 2906 3500 
L 3481 3500 
L 3481 -1331 
L 2906 -1331 
L 2906 525 
z
" transform="scale(0.015625)"/>
       <path id="DejaVuSans-75" d="M 544 1381 
L 544 3500 
L 1119 3500 
L 1119 1403 
Q 1119 906 1312 657 
Q 1506 409 1894 409 
Q 2359 409 2629 706 
Q 2900 1003 2900 1516 
L 2900 3500 
L 3475 3500 
L 3475 0 
L 2900 0 
L 2900 538 
Q 2691 219 2414 64 
Q 2138 -91 1772 -91 
Q 1169 -91 856 284 
Q 544 659 544 1381 
z
M 1991 3584 
L 1991 3584 
z
" transform="scale(0.015625)"/>
       <path id="DejaVuSans-6e" d="M 3513 2113 
L 3513 0 
L 2938 0 
L 2938 2094 
Q 2938 2591 2744 2837 
Q 2550 3084 2163 3084 
Q 1697 3084 1428 2787 
Q 1159 2491 1159 1978 
L 1159 0 
L 581 0 
L 581 3500 
L 1159 3500 
L 1159 2956 
Q 1366 3272 1645 3428 
Q 1925 3584 2291 3584 
Q 2894 3584 3203 3211 
Q 3513 2838 3513 2113 
z
" transform="scale(0.015625)"/>
       <path id="DejaVuSans-63" d="M 3122 3366 
L 3122 2828 
Q 2878 2963 2633 3030 
Q 2388 3097 2138 3097 
Q 1578 3097 1268 2742 
Q 959 2388 959 1747 
Q 959 1106 1268 751 
Q 1578 397 2138 397 
Q 2388 397 2633 464 
Q 2878 531 3122 666 
L 3122 134 
Q 2881 22 2623 -34 
Q 2366 -91 2075 -91 
Q 1284 -91 818 406 
Q 353 903 353 1747 
Q 353 2603 823 3093 
Q 1294 3584 2113 3584 
Q 2378 3584 2631 3529 
Q 2884 3475 3122 3366 
z
" transform="scale(0.015625)"/>
       <path id="DejaVuSans-79" d="M 2059 -325 
Q 1816 -950 1584 -1140 
Q 1353 -1331 966 -1331 
L 506 -1331 
L 506 -850 
L 844 -850 
Q 1081 -850 1212 -737 
Q 1344 -625 1503 -206 
L 1606 56 
L 191 3500 
L 800 3500 
L 1894 763 
L 2988 3500 
L 3597 3500 
L 2059 -325 
z
" transform="scale(0.015625)"/>
       <path id="DejaVuSans-20" transform="scale(0.015625)"/>
       <path id="DejaVuSans-28" d="M 1984 4856 
Q 1566 4138 1362 3434 
Q 1159 2731 1159 2009 
Q 1159 1288 1364 580 
Q 1569 -128 1984 -844 
L 1484 -844 
Q 1016 -109 783 600 
Q 550 1309 550 2009 
Q 550 2706 781 3412 
Q 1013 4119 1484 4856 
L 1984 4856 
z
" transform="scale(0.015625)"/>
       <path id="DejaVuSans-47" d="M 3809 666 
L 3809 1919 
L 2778 1919 
L 2778 2438 
L 4434 2438 
L 4434 434 
Q 4069 175 3628 42 
Q 3188 -91 2688 -91 
Q 1594 -91 976 548 
Q 359 1188 359 2328 
Q 359 3472 976 4111 
Q 1594 4750 2688 4750 
Q 3144 4750 3555 4637 
Q 3966 4525 4313 4306 
L 4313 3634 
Q 3963 3931 3569 4081 
Q 3175 4231 2741 4231 
Q 1884 4231 1454 3753 
Q 1025 3275 1025 2328 
Q 1025 1384 1454 906 
Q 1884 428 2741 428 
Q 3075 428 3337 486 
Q 3600 544 3809 666 
z
" transform="scale(0.015625)"/>
       <path id="DejaVuSans-48" d="M 628 4666 
L 1259 4666 
L 1259 2753 
L 3553 2753 
L 3553 4666 
L 4184 4666 
L 4184 0 
L 3553 0 
L 3553 2222 
L 1259 2222 
L 1259 0 
L 628 0 
L 628 4666 
z
" transform="scale(0.015625)"/>
       <path id="DejaVuSans-7a" d="M 353 3500 
L 3084 3500 
L 3084 2975 
L 922 459 
L 3084 459 
L 3084 0 
L 275 0 
L 275 525 
L 2438 3041 
L 353 3041 
L 353 3500 
z
" transform="scale(0.015625)"/>
       <path id="DejaVuSans-29" d="M 513 4856 
L 1013 4856 
Q 1481 4119 1714 3412 
Q 1947 2706 1947 2009 
Q 1947 1309 1714 600 
Q 1481 -109 1013 -844 
L 513 -844 
Q 928 -128 1133 580 
Q 1338 1288 1338 2009 
Q 1338 2731 1133 3434 
Q 928 4138 513 4856 
z
" transform="scale(0.015625)"/>
      </defs>
      <use xlink:href="#DejaVuSans-46"/>
      <use xlink:href="#DejaVuSans-72" transform="translate(50.269531 0)"/>
      <use xlink:href="#DejaVuSans-65" transform="translate(89.132812 0)"/>
      <use xlink:href="#DejaVuSans-71" transform="translate(150.65625 0)"/>
      <use xlink:href="#DejaVuSans-75" transform="translate(214.132812 0)"/>
      <use xlink:href="#DejaVuSans-65" transform="translate(277.511719 0)"/>
      <use xlink:href="#DejaVuSans-6e" transform="translate(339.035156 0)"/>
      <use xlink:href="#DejaVuSans-63" transform="translate(402.414062 0)"/>
      <use xlink:href="#DejaVuSans-79" transform="translate(457.394531 0)"/>
      <use xlink:href="#DejaVuSans-20" transform="translate(516.574219 0)"/>
      <use xlink:href="#DejaVuSans-28" transform="translate(548.361328 0)"/>
      <use xlink:href="#DejaVuSans-47" transform="translate(587.375 0)"/>
      <use xlink:href="#DejaVuSans-48" transform="translate(664.865234 0)"/>
      <use xlink:href="#DejaVuSans-7a" transform="translate(740.060547 0)"/>
      <use xlink:href="#DejaVuSans-29" transform="translate(792.550781 0)"/>
     </g>
    </g>
   </g>
   <g id="line2d_29">
    <path d="M 57.474063 243.36996 
L 58.849154 243.36996 
L 60.224246 240.04517 
L 61.599338 235.007659 
L 62.97443 228.544692 
L 64.349522 220.831356 
L 65.724613 212.039242 
L 68.474797 191.923322 
L 71.224981 169.61458 
L 76.725348 123.827484 
L 79.475532 102.734785 
L 82.225715 84.127028 
L 83.600807 75.979475 
L 84.975899 68.693239 
L 86.350991 62.317626 
L 87.726083 56.887297 
L 89.101174 52.422619 
L 90.476266 48.930184 
L 91.851358 46.403472 
L 93.22645 44.823648 
L 94.601542 44.160474 
L 95.976633 44.373321 
L 97.351725 45.412363 
L 98.726817 47.221812 
L 100.101909 49.73725 
L 101.477001 52.887258 
L 102.852093 56.595771 
L 104.227184 60.783437 
L 106.977368 70.269823 
L 111.102643 86.054359 
L 115.227919 101.862367 
L 117.978103 111.523398 
L 120.728286 119.98778 
L 122.103378 123.670965 
L 123.47847 126.948302 
L 124.853562 129.798502 
L 126.228653 132.207053 
L 127.603745 134.166046 
L 128.978837 135.673916 
L 130.353929 136.735125 
L 131.729021 137.35977 
L 133.104113 137.563151 
L 134.479204 137.365289 
L 135.854296 136.790311 
L 137.229388 135.865576 
L 138.60448 134.622056 
L 139.979572 133.093404 
L 141.354664 131.315235 
L 144.104847 127.15912 
L 146.855031 122.4561 
L 153.73049 110.215904 
L 156.480674 105.797138 
L 159.230857 101.95344 
L 160.605949 100.291829 
L 161.981041 98.821152 
L 163.356133 97.550509 
L 164.731224 96.48587 
L 166.106316 95.630167 
L 167.481408 94.983417 
L 168.8565 94.542885 
L 170.231592 94.303259 
L 171.606684 94.256871 
L 172.981775 94.393912 
L 174.356867 94.702735 
L 175.731959 95.170108 
L 177.107051 95.781314 
L 179.857234 97.371039 
L 182.607418 99.336755 
L 186.732694 102.684121 
L 192.233061 107.195407 
L 194.983244 109.214172 
L 197.733428 110.95722 
L 200.483612 112.364256 
L 203.233795 113.398518 
L 205.983979 114.046191 
L 208.734163 114.314692 
L 211.484346 114.230069 
L 214.23453 113.833643 
L 216.984714 113.178379 
L 219.734897 112.325019 
L 223.860173 110.814787 
L 232.110724 107.727427 
L 236.235999 106.491666 
L 238.986183 105.860658 
L 241.736366 105.403797 
L 244.48655 105.126196 
L 247.236734 105.023257 
L 249.986917 105.081918 
L 254.112193 105.427816 
L 258.237468 106.004018 
L 276.113662 108.84458 
L 280.238937 109.177244 
L 284.364213 109.324103 
L 289.86458 109.25442 
L 295.364947 108.952291 
L 317.366416 107.43814 
L 324.241876 107.335781 
L 332.492426 107.479821 
L 359.994263 108.25678 
L 370.994997 108.189446 
L 401.247017 107.8328 
L 423.248487 107.975822 
L 445.249956 108.021474 
L 501.62872 107.972731 
L 585.509321 107.970637 
L 881.154063 107.966339 
L 881.154063 107.966339 
" clip-path="url(#pccb1581fb8)" style="fill: none; stroke: #ef4444; stroke-width: 1.4; stroke-linecap: square"/>
   </g>
   <g id="line2d_30">
    <path d="M 57.474063 243.36996 
L 58.849154 243.36996 
L 60.224246 234.47582 
L 61.599338 221.827473 
L 65.724613 180.644568 
L 68.474797 156.706992 
L 69.849889 146.313304 
L 71.224981 136.994455 
L 72.600073 128.728727 
L 73.975164 121.476494 
L 75.350256 115.186451 
L 76.725348 109.799627 
L 78.10044 105.252207 
L 79.475532 101.477635 
L 80.850623 98.408253 
L 82.225715 95.976611 
L 83.600807 94.116504 
L 84.975899 92.763801 
L 86.350991 91.857096 
L 87.726083 91.338196 
L 89.101174 91.152478 
L 90.476266 91.249133 
L 91.851358 91.581311 
L 93.22645 92.10618 
L 95.976633 93.582633 
L 98.726817 95.41446 
L 106.977368 101.242189 
L 109.727552 102.929172 
L 112.477735 104.395993 
L 115.227919 105.626731 
L 117.978103 106.623186 
L 120.728286 107.399566 
L 123.47847 107.978039 
L 126.228653 108.385149 
L 130.353929 108.73603 
L 134.479204 108.856375 
L 139.979572 108.795081 
L 172.981775 107.9421 
L 193.608153 107.937979 
L 262.362744 107.967987 
L 881.154063 107.966386 
L 881.154063 107.966386 
" clip-path="url(#pccb1581fb8)" style="fill: none; stroke: #3b82f6; stroke-width: 1.4; stroke-linecap: square"/>
   </g>
   <g id="line2d_31">
    <path d="M 57.474063 243.36996 
L 58.849154 243.36996 
L 60.224246 229.264958 
L 61.599338 206.565342 
L 64.349522 154.152779 
L 65.724613 131.225772 
L 67.099705 113.102794 
L 68.474797 100.449156 
L 69.849889 93.12615 
L 71.224981 90.432141 
L 72.600073 91.339918 
L 73.975164 94.704394 
L 75.350256 99.425351 
L 78.10044 109.382421 
L 79.475532 113.410199 
L 80.850623 116.385343 
L 82.225715 118.242754 
L 83.600807 119.062858 
L 84.975899 119.021574 
L 86.350991 118.343556 
L 87.726083 117.263074 
L 91.851358 113.552517 
L 93.22645 112.587227 
L 94.601542 111.855023 
L 95.976633 111.355961 
L 97.351725 111.064334 
L 98.726817 110.938798 
L 101.477001 110.994935 
L 106.977368 111.266855 
L 109.727552 111.190372 
L 113.852827 110.845012 
L 122.103378 110.106326 
L 130.353929 109.704931 
L 152.355398 108.945996 
L 172.981775 108.536501 
L 199.10852 108.253299 
L 238.986183 108.067617 
L 314.616233 107.981613 
L 673.515198 107.966979 
L 881.154063 107.966979 
L 881.154063 107.966979 
" clip-path="url(#pccb1581fb8)" style="fill: none; stroke: #f59e0b; stroke-width: 1.4; stroke-linecap: square"/>
   </g>
   <g id="line2d_32">
    <path d="M 57.474063 107.968107 
L 881.154063 107.968107 
" clip-path="url(#pccb1581fb8)" style="fill: none; stroke-dasharray: 4.07,1.76; stroke-dashoffset: 0; stroke: #16a34a; stroke-opacity: 0.9; stroke-width: 1.1"/>
   </g>
   <g id="patch_3">
    <path d="M 57.474063 253.330435 
L 57.474063 34.2 
" style="fill: none; stroke: #cbd5e1; stroke-width: 0.8; stroke-linejoin: miter; stroke-linecap: square"/>
   </g>
   <g id="patch_4">
    <path d="M 881.154063 253.330435 
L 881.154063 34.2 
" style="fill: none; stroke: #cbd5e1; stroke-width: 0.8; stroke-linejoin: miter; stroke-linecap: square"/>
   </g>
   <g id="patch_5">
    <path d="M 57.474063 253.330435 
L 881.154063 253.330435 
" style="fill: none; stroke: #cbd5e1; stroke-width: 0.8; stroke-linejoin: miter; stroke-linecap: square"/>
   </g>
   <g id="patch_6">
    <path d="M 57.474063 34.2 
L 881.154063 34.2 
" style="fill: none; stroke: #cbd5e1; stroke-width: 0.8; stroke-linejoin: miter; stroke-linecap: square"/>
   </g>
   <g id="text_10">
    <!-- $f_{out}$ = 2.400 GHz -->
    <g style="fill: #16a34a" transform="translate(794.638863 231.417391) scale(0.09 -0.09)">
     <defs>
      <path id="DejaVuSans-Oblique-66" d="M 3059 4863 
L 2969 4384 
L 2419 4384 
Q 2106 4384 1964 4261 
Q 1822 4138 1753 3809 
L 1691 3500 
L 2638 3500 
L 2553 3053 
L 1606 3053 
L 1013 0 
L 434 0 
L 1031 3053 
L 481 3053 
L 563 3500 
L 1113 3500 
L 1159 3744 
Q 1278 4363 1576 4613 
Q 1875 4863 2516 4863 
L 3059 4863 
z
" transform="scale(0.015625)"/>
      <path id="DejaVuSans-Oblique-6f" d="M 1625 -91 
Q 1009 -91 651 289 
Q 294 669 294 1325 
Q 294 1706 417 2101 
Q 541 2497 738 2766 
Q 1047 3184 1428 3384 
Q 1809 3584 2291 3584 
Q 2888 3584 3255 3212 
Q 3622 2841 3622 2241 
Q 3622 1825 3500 1412 
Q 3378 1000 3181 728 
Q 2875 309 2494 109 
Q 2113 -91 1625 -91 
z
M 891 1344 
Q 891 869 1089 633 
Q 1288 397 1691 397 
Q 2269 397 2648 901 
Q 3028 1406 3028 2181 
Q 3028 2634 2825 2865 
Q 2622 3097 2228 3097 
Q 1903 3097 1650 2945 
Q 1397 2794 1197 2484 
Q 1050 2253 970 1956 
Q 891 1659 891 1344 
z
" transform="scale(0.015625)"/>
      <path id="DejaVuSans-Oblique-75" d="M 428 1388 
L 838 3500 
L 1416 3500 
L 1006 1409 
Q 975 1256 961 1147 
Q 947 1038 947 966 
Q 947 700 1109 554 
Q 1272 409 1569 409 
Q 2031 409 2368 721 
Q 2706 1034 2809 1563 
L 3194 3500 
L 3769 3500 
L 3091 0 
L 2516 0 
L 2631 550 
Q 2388 244 2052 76 
Q 1716 -91 1338 -91 
Q 878 -91 622 161 
Q 366 413 366 863 
Q 366 956 381 1097 
Q 397 1238 428 1388 
z
" transform="scale(0.015625)"/>
      <path id="DejaVuSans-Oblique-74" d="M 2706 3500 
L 2619 3053 
L 1472 3053 
L 1100 1153 
Q 1081 1047 1072 975 
Q 1063 903 1063 863 
Q 1063 663 1183 572 
Q 1303 481 1569 481 
L 2150 481 
L 2053 0 
L 1503 0 
Q 991 0 739 200 
Q 488 400 488 806 
Q 488 878 497 964 
Q 506 1050 525 1153 
L 897 3053 
L 409 3053 
L 500 3500 
L 978 3500 
L 1172 4494 
L 1747 4494 
L 1556 3500 
L 2706 3500 
z
" transform="scale(0.015625)"/>
      <path id="DejaVuSans-3d" d="M 678 2906 
L 4684 2906 
L 4684 2381 
L 678 2381 
L 678 2906 
z
M 678 1631 
L 4684 1631 
L 4684 1100 
L 678 1100 
L 678 1631 
z
" transform="scale(0.015625)"/>
     </defs>
     <use xlink:href="#DejaVuSans-Oblique-66" transform="translate(0 0.015625)"/>
     <use xlink:href="#DejaVuSans-Oblique-6f" transform="translate(35.205078 -16.390625) scale(0.7)"/>
     <use xlink:href="#DejaVuSans-Oblique-75" transform="translate(78.032227 -16.390625) scale(0.7)"/>
     <use xlink:href="#DejaVuSans-Oblique-74" transform="translate(122.397461 -16.390625) scale(0.7)"/>
     <use xlink:href="#DejaVuSans-20" transform="translate(152.578125 0.015625)"/>
     <use xlink:href="#DejaVuSans-3d" transform="translate(184.365234 0.015625)"/>
     <use xlink:href="#DejaVuSans-20" transform="translate(268.154297 0.015625)"/>
     <use xlink:href="#DejaVuSans-32" transform="translate(299.941406 0.015625)"/>
     <use xlink:href="#DejaVuSans-2e" transform="translate(363.564453 0.015625)"/>
     <use xlink:href="#DejaVuSans-34" transform="translate(395.351562 0.015625)"/>
     <use xlink:href="#DejaVuSans-30" transform="translate(458.974609 0.015625)"/>
     <use xlink:href="#DejaVuSans-30" transform="translate(522.597656 0.015625)"/>
     <use xlink:href="#DejaVuSans-20" transform="translate(586.220703 0.015625)"/>
     <use xlink:href="#DejaVuSans-47" transform="translate(618.007812 0.015625)"/>
     <use xlink:href="#DejaVuSans-48" transform="translate(695.498047 0.015625)"/>
     <use xlink:href="#DejaVuSans-7a" transform="translate(770.693359 0.015625)"/>
    </g>
   </g>
   <g id="legend_1">
    <g id="patch_7">
     <path d="M 636.083125 249.080435 
L 875.204062 249.080435 
Q 876.904063 249.080435 876.904063 247.380435 
L 876.904063 210.749419 
Q 876.904063 209.049419 875.204062 209.049419 
L 636.083125 209.049419 
Q 634.383125 209.049419 634.383125 210.749419 
L 634.383125 247.380435 
Q 634.383125 249.080435 636.083125 249.080435 
z
" style="fill: #ffffff; opacity: 0.9; stroke: #cbd5e1; stroke-linejoin: miter"/>
    </g>
    <g id="line2d_33">
     <path d="M 637.783125 215.933091 
L 646.283125 215.933091 
L 654.783125 215.933091 
" style="fill: none; stroke: #ef4444; stroke-width: 1.4; stroke-linecap: square"/>
    </g>
    <g id="text_11">
     <!-- R = 6 kΩ   ζ = 0.27   PM = 26.0°   fc = 0.97 MHz -->
     <g style="fill: #1e293b" transform="translate(661.583125 218.908091) scale(0.085 -0.085)">
      <defs>
       <path id="DejaVuSans-52" d="M 2841 2188 
Q 3044 2119 3236 1894 
Q 3428 1669 3622 1275 
L 4263 0 
L 3584 0 
L 2988 1197 
Q 2756 1666 2539 1819 
Q 2322 1972 1947 1972 
L 1259 1972 
L 1259 0 
L 628 0 
L 628 4666 
L 2053 4666 
Q 2853 4666 3247 4331 
Q 3641 3997 3641 3322 
Q 3641 2881 3436 2590 
Q 3231 2300 2841 2188 
z
M 1259 4147 
L 1259 2491 
L 2053 2491 
Q 2509 2491 2742 2702 
Q 2975 2913 2975 3322 
Q 2975 3731 2742 3939 
Q 2509 4147 2053 4147 
L 1259 4147 
z
" transform="scale(0.015625)"/>
       <path id="DejaVuSans-6b" d="M 581 4863 
L 1159 4863 
L 1159 1991 
L 2875 3500 
L 3609 3500 
L 1753 1863 
L 3688 0 
L 2938 0 
L 1159 1709 
L 1159 0 
L 581 0 
L 581 4863 
z
" transform="scale(0.015625)"/>
       <path id="DejaVuSans-3a9" d="M 4647 556 
L 4647 0 
L 2772 0 
L 2772 556 
Q 3325 859 3634 1378 
Q 3944 1897 3944 2528 
Q 3944 3278 3531 3731 
Q 3119 4184 2444 4184 
Q 1769 4184 1355 3729 
Q 941 3275 941 2528 
Q 941 1897 1250 1378 
Q 1563 859 2119 556 
L 2119 0 
L 244 0 
L 244 556 
L 1241 556 
Q 747 991 519 1456 
Q 294 1922 294 2497 
Q 294 3491 894 4106 
Q 1491 4722 2444 4722 
Q 3391 4722 3994 4106 
Q 4594 3494 4594 2528 
Q 4594 1922 4372 1459 
Q 4150 997 3647 556 
L 4647 556 
z
" transform="scale(0.015625)"/>
       <path id="DejaVuSans-3b6" d="M 2231 397 
Q 2644 394 2891 159 
Q 3153 -88 3153 -463 
Q 3153 -822 2922 -1072 
Q 2672 -1344 2163 -1344 
Q 2163 -1109 2163 -872 
Q 2378 -888 2509 -750 
Q 2609 -641 2609 -525 
Q 2609 -359 2509 -222 
Q 2413 -91 2231 -91 
Q 338 -91 334 1669 
Q 334 3206 2119 4284 
L 456 4284 
L 456 4863 
L 3175 4863 
L 3175 4284 
Q 913 3147 913 1669 
Q 913 397 2231 397 
z
" transform="scale(0.015625)"/>
       <path id="DejaVuSans-50" d="M 1259 4147 
L 1259 2394 
L 2053 2394 
Q 2494 2394 2734 2622 
Q 2975 2850 2975 3272 
Q 2975 3691 2734 3919 
Q 2494 4147 2053 4147 
L 1259 4147 
z
M 628 4666 
L 2053 4666 
Q 2838 4666 3239 4311 
Q 3641 3956 3641 3272 
Q 3641 2581 3239 2228 
Q 2838 1875 2053 1875 
L 1259 1875 
L 1259 0 
L 628 0 
L 628 4666 
z
" transform="scale(0.015625)"/>
       <path id="DejaVuSans-4d" d="M 628 4666 
L 1569 4666 
L 2759 1491 
L 3956 4666 
L 4897 4666 
L 4897 0 
L 4281 0 
L 4281 4097 
L 3078 897 
L 2444 897 
L 1241 4097 
L 1241 0 
L 628 0 
L 628 4666 
z
" transform="scale(0.015625)"/>
       <path id="DejaVuSans-b0" d="M 1600 4347 
Q 1350 4347 1178 4173 
Q 1006 4000 1006 3750 
Q 1006 3503 1178 3333 
Q 1350 3163 1600 3163 
Q 1850 3163 2022 3333 
Q 2194 3503 2194 3750 
Q 2194 3997 2020 4172 
Q 1847 4347 1600 4347 
z
M 1600 4750 
Q 1800 4750 1984 4673 
Q 2169 4597 2303 4453 
Q 2447 4313 2519 4134 
Q 2591 3956 2591 3750 
Q 2591 3338 2302 3052 
Q 2013 2766 1594 2766 
Q 1172 2766 890 3047 
Q 609 3328 609 3750 
Q 609 4169 896 4459 
Q 1184 4750 1600 4750 
z
" transform="scale(0.015625)"/>
       <path id="DejaVuSans-66" d="M 2375 4863 
L 2375 4384 
L 1825 4384 
Q 1516 4384 1395 4259 
Q 1275 4134 1275 3809 
L 1275 3500 
L 2222 3500 
L 2222 3053 
L 1275 3053 
L 1275 0 
L 697 0 
L 697 3053 
L 147 3053 
L 147 3500 
L 697 3500 
L 697 3744 
Q 697 4328 969 4595 
Q 1241 4863 1831 4863 
L 2375 4863 
z
" transform="scale(0.015625)"/>
      </defs>
      <use xlink:href="#DejaVuSans-52"/>
      <use xlink:href="#DejaVuSans-20" transform="translate(69.482422 0)"/>
      <use xlink:href="#DejaVuSans-3d" transform="translate(101.269531 0)"/>
      <use xlink:href="#DejaVuSans-20" transform="translate(185.058594 0)"/>
      <use xlink:href="#DejaVuSans-36" transform="translate(216.845703 0)"/>
      <use xlink:href="#DejaVuSans-20" transform="translate(280.46875 0)"/>
      <use xlink:href="#DejaVuSans-6b" transform="translate(312.255859 0)"/>
      <use xlink:href="#DejaVuSans-3a9" transform="translate(370.166016 0)"/>
      <use xlink:href="#DejaVuSans-20" transform="translate(446.582031 0)"/>
      <use xlink:href="#DejaVuSans-20" transform="translate(478.369141 0)"/>
      <use xlink:href="#DejaVuSans-20" transform="translate(510.15625 0)"/>
      <use xlink:href="#DejaVuSans-3b6" transform="translate(541.943359 0)"/>
      <use xlink:href="#DejaVuSans-20" transform="translate(596.337891 0)"/>
      <use xlink:href="#DejaVuSans-3d" transform="translate(628.125 0)"/>
      <use xlink:href="#DejaVuSans-20" transform="translate(711.914062 0)"/>
      <use xlink:href="#DejaVuSans-30" transform="translate(743.701172 0)"/>
      <use xlink:href="#DejaVuSans-2e" transform="translate(807.324219 0)"/>
      <use xlink:href="#DejaVuSans-32" transform="translate(839.111328 0)"/>
      <use xlink:href="#DejaVuSans-37" transform="translate(902.734375 0)"/>
      <use xlink:href="#DejaVuSans-20" transform="translate(966.357422 0)"/>
      <use xlink:href="#DejaVuSans-20" transform="translate(998.144531 0)"/>
      <use xlink:href="#DejaVuSans-20" transform="translate(1029.931641 0)"/>
      <use xlink:href="#DejaVuSans-50" transform="translate(1061.71875 0)"/>
      <use xlink:href="#DejaVuSans-4d" transform="translate(1122.021484 0)"/>
      <use xlink:href="#DejaVuSans-20" transform="translate(1208.300781 0)"/>
      <use xlink:href="#DejaVuSans-3d" transform="translate(1240.087891 0)"/>
      <use xlink:href="#DejaVuSans-20" transform="translate(1323.876953 0)"/>
      <use xlink:href="#DejaVuSans-32" transform="translate(1355.664062 0)"/>
      <use xlink:href="#DejaVuSans-36" transform="translate(1419.287109 0)"/>
      <use xlink:href="#DejaVuSans-2e" transform="translate(1482.910156 0)"/>
      <use xlink:href="#DejaVuSans-30" transform="translate(1514.697266 0)"/>
      <use xlink:href="#DejaVuSans-b0" transform="translate(1578.320312 0)"/>
      <use xlink:href="#DejaVuSans-20" transform="translate(1628.320312 0)"/>
      <use xlink:href="#DejaVuSans-20" transform="translate(1660.107422 0)"/>
      <use xlink:href="#DejaVuSans-20" transform="translate(1691.894531 0)"/>
      <use xlink:href="#DejaVuSans-66" transform="translate(1723.681641 0)"/>
      <use xlink:href="#DejaVuSans-63" transform="translate(1758.886719 0)"/>
      <use xlink:href="#DejaVuSans-20" transform="translate(1813.867188 0)"/>
      <use xlink:href="#DejaVuSans-3d" transform="translate(1845.654297 0)"/>
      <use xlink:href="#DejaVuSans-20" transform="translate(1929.443359 0)"/>
      <use xlink:href="#DejaVuSans-30" transform="translate(1961.230469 0)"/>
      <use xlink:href="#DejaVuSans-2e" transform="translate(2024.853516 0)"/>
      <use xlink:href="#DejaVuSans-39" transform="translate(2056.640625 0)"/>
      <use xlink:href="#DejaVuSans-37" transform="translate(2120.263672 0)"/>
      <use xlink:href="#DejaVuSans-20" transform="translate(2183.886719 0)"/>
      <use xlink:href="#DejaVuSans-4d" transform="translate(2215.673828 0)"/>
      <use xlink:href="#DejaVuSans-48" transform="translate(2301.953125 0)"/>
      <use xlink:href="#DejaVuSans-7a" transform="translate(2377.148438 0)"/>
     </g>
    </g>
    <g id="line2d_34">
     <path d="M 637.783125 228.426763 
L 646.283125 228.426763 
L 654.783125 228.426763 
" style="fill: none; stroke: #3b82f6; stroke-width: 1.4; stroke-linecap: square"/>
    </g>
    <g id="text_12">
     <!-- R = 16 kΩ   ζ = 0.72   PM = 53.5°   fc = 1.37 MHz -->
     <g style="fill: #1e293b" transform="translate(661.583125 231.401763) scale(0.085 -0.085)">
      <use xlink:href="#DejaVuSans-52"/>
      <use xlink:href="#DejaVuSans-20" transform="translate(69.482422 0)"/>
      <use xlink:href="#DejaVuSans-3d" transform="translate(101.269531 0)"/>
      <use xlink:href="#DejaVuSans-20" transform="translate(185.058594 0)"/>
      <use xlink:href="#DejaVuSans-31" transform="translate(216.845703 0)"/>
      <use xlink:href="#DejaVuSans-36" transform="translate(280.46875 0)"/>
      <use xlink:href="#DejaVuSans-20" transform="translate(344.091797 0)"/>
      <use xlink:href="#DejaVuSans-6b" transform="translate(375.878906 0)"/>
      <use xlink:href="#DejaVuSans-3a9" transform="translate(433.789062 0)"/>
      <use xlink:href="#DejaVuSans-20" transform="translate(510.205078 0)"/>
      <use xlink:href="#DejaVuSans-20" transform="translate(541.992188 0)"/>
      <use xlink:href="#DejaVuSans-20" transform="translate(573.779297 0)"/>
      <use xlink:href="#DejaVuSans-3b6" transform="translate(605.566406 0)"/>
      <use xlink:href="#DejaVuSans-20" transform="translate(659.960938 0)"/>
      <use xlink:href="#DejaVuSans-3d" transform="translate(691.748047 0)"/>
      <use xlink:href="#DejaVuSans-20" transform="translate(775.537109 0)"/>
      <use xlink:href="#DejaVuSans-30" transform="translate(807.324219 0)"/>
      <use xlink:href="#DejaVuSans-2e" transform="translate(870.947266 0)"/>
      <use xlink:href="#DejaVuSans-37" transform="translate(902.734375 0)"/>
      <use xlink:href="#DejaVuSans-32" transform="translate(966.357422 0)"/>
      <use xlink:href="#DejaVuSans-20" transform="translate(1029.980469 0)"/>
      <use xlink:href="#DejaVuSans-20" transform="translate(1061.767578 0)"/>
      <use xlink:href="#DejaVuSans-20" transform="translate(1093.554688 0)"/>
      <use xlink:href="#DejaVuSans-50" transform="translate(1125.341797 0)"/>
      <use xlink:href="#DejaVuSans-4d" transform="translate(1185.644531 0)"/>
      <use xlink:href="#DejaVuSans-20" transform="translate(1271.923828 0)"/>
      <use xlink:href="#DejaVuSans-3d" transform="translate(1303.710938 0)"/>
      <use xlink:href="#DejaVuSans-20" transform="translate(1387.5 0)"/>
      <use xlink:href="#DejaVuSans-35" transform="translate(1419.287109 0)"/>
      <use xlink:href="#DejaVuSans-33" transform="translate(1482.910156 0)"/>
      <use xlink:href="#DejaVuSans-2e" transform="translate(1546.533203 0)"/>
      <use xlink:href="#DejaVuSans-35" transform="translate(1578.320312 0)"/>
      <use xlink:href="#DejaVuSans-b0" transform="translate(1641.943359 0)"/>
      <use xlink:href="#DejaVuSans-20" transform="translate(1691.943359 0)"/>
      <use xlink:href="#DejaVuSans-20" transform="translate(1723.730469 0)"/>
      <use xlink:href="#DejaVuSans-20" transform="translate(1755.517578 0)"/>
      <use xlink:href="#DejaVuSans-66" transform="translate(1787.304688 0)"/>
      <use xlink:href="#DejaVuSans-63" transform="translate(1822.509766 0)"/>
      <use xlink:href="#DejaVuSans-20" transform="translate(1877.490234 0)"/>
      <use xlink:href="#DejaVuSans-3d" transform="translate(1909.277344 0)"/>
      <use xlink:href="#DejaVuSans-20" transform="translate(1993.066406 0)"/>
      <use xlink:href="#DejaVuSans-31" transform="translate(2024.853516 0)"/>
      <use xlink:href="#DejaVuSans-2e" transform="translate(2088.476562 0)"/>
      <use xlink:href="#DejaVuSans-33" transform="translate(2120.263672 0)"/>
      <use xlink:href="#DejaVuSans-37" transform="translate(2183.886719 0)"/>
      <use xlink:href="#DejaVuSans-20" transform="translate(2247.509766 0)"/>
      <use xlink:href="#DejaVuSans-4d" transform="translate(2279.296875 0)"/>
      <use xlink:href="#DejaVuSans-48" transform="translate(2365.576172 0)"/>
      <use xlink:href="#DejaVuSans-7a" transform="translate(2440.771484 0)"/>
     </g>
    </g>
    <g id="line2d_35">
     <path d="M 637.783125 240.920435 
L 646.283125 240.920435 
L 654.783125 240.920435 
" style="fill: none; stroke: #f59e0b; stroke-width: 1.4; stroke-linecap: square"/>
    </g>
    <g id="text_13">
     <!-- R = 40 kΩ   ζ = 1.80   PM = 44.0°   fc = 2.43 MHz -->
     <g style="fill: #1e293b" transform="translate(661.583125 243.895435) scale(0.085 -0.085)">
      <use xlink:href="#DejaVuSans-52"/>
      <use xlink:href="#DejaVuSans-20" transform="translate(69.482422 0)"/>
      <use xlink:href="#DejaVuSans-3d" transform="translate(101.269531 0)"/>
      <use xlink:href="#DejaVuSans-20" transform="translate(185.058594 0)"/>
      <use xlink:href="#DejaVuSans-34" transform="translate(216.845703 0)"/>
      <use xlink:href="#DejaVuSans-30" transform="translate(280.46875 0)"/>
      <use xlink:href="#DejaVuSans-20" transform="translate(344.091797 0)"/>
      <use xlink:href="#DejaVuSans-6b" transform="translate(375.878906 0)"/>
      <use xlink:href="#DejaVuSans-3a9" transform="translate(433.789062 0)"/>
      <use xlink:href="#DejaVuSans-20" transform="translate(510.205078 0)"/>
      <use xlink:href="#DejaVuSans-20" transform="translate(541.992188 0)"/>
      <use xlink:href="#DejaVuSans-20" transform="translate(573.779297 0)"/>
      <use xlink:href="#DejaVuSans-3b6" transform="translate(605.566406 0)"/>
      <use xlink:href="#DejaVuSans-20" transform="translate(659.960938 0)"/>
      <use xlink:href="#DejaVuSans-3d" transform="translate(691.748047 0)"/>
      <use xlink:href="#DejaVuSans-20" transform="translate(775.537109 0)"/>
      <use xlink:href="#DejaVuSans-31" transform="translate(807.324219 0)"/>
      <use xlink:href="#DejaVuSans-2e" transform="translate(870.947266 0)"/>
      <use xlink:href="#DejaVuSans-38" transform="translate(902.734375 0)"/>
      <use xlink:href="#DejaVuSans-30" transform="translate(966.357422 0)"/>
      <use xlink:href="#DejaVuSans-20" transform="translate(1029.980469 0)"/>
      <use xlink:href="#DejaVuSans-20" transform="translate(1061.767578 0)"/>
      <use xlink:href="#DejaVuSans-20" transform="translate(1093.554688 0)"/>
      <use xlink:href="#DejaVuSans-50" transform="translate(1125.341797 0)"/>
      <use xlink:href="#DejaVuSans-4d" transform="translate(1185.644531 0)"/>
      <use xlink:href="#DejaVuSans-20" transform="translate(1271.923828 0)"/>
      <use xlink:href="#DejaVuSans-3d" transform="translate(1303.710938 0)"/>
      <use xlink:href="#DejaVuSans-20" transform="translate(1387.5 0)"/>
      <use xlink:href="#DejaVuSans-34" transform="translate(1419.287109 0)"/>
      <use xlink:href="#DejaVuSans-34" transform="translate(1482.910156 0)"/>
      <use xlink:href="#DejaVuSans-2e" transform="translate(1546.533203 0)"/>
      <use xlink:href="#DejaVuSans-30" transform="translate(1578.320312 0)"/>
      <use xlink:href="#DejaVuSans-b0" transform="translate(1641.943359 0)"/>
      <use xlink:href="#DejaVuSans-20" transform="translate(1691.943359 0)"/>
      <use xlink:href="#DejaVuSans-20" transform="translate(1723.730469 0)"/>
      <use xlink:href="#DejaVuSans-20" transform="translate(1755.517578 0)"/>
      <use xlink:href="#DejaVuSans-66" transform="translate(1787.304688 0)"/>
      <use xlink:href="#DejaVuSans-63" transform="translate(1822.509766 0)"/>
      <use xlink:href="#DejaVuSans-20" transform="translate(1877.490234 0)"/>
      <use xlink:href="#DejaVuSans-3d" transform="translate(1909.277344 0)"/>
      <use xlink:href="#DejaVuSans-20" transform="translate(1993.066406 0)"/>
      <use xlink:href="#DejaVuSans-32" transform="translate(2024.853516 0)"/>
      <use xlink:href="#DejaVuSans-2e" transform="translate(2088.476562 0)"/>
      <use xlink:href="#DejaVuSans-34" transform="translate(2120.263672 0)"/>
      <use xlink:href="#DejaVuSans-33" transform="translate(2183.886719 0)"/>
      <use xlink:href="#DejaVuSans-20" transform="translate(2247.509766 0)"/>
      <use xlink:href="#DejaVuSans-4d" transform="translate(2279.296875 0)"/>
      <use xlink:href="#DejaVuSans-48" transform="translate(2365.576172 0)"/>
      <use xlink:href="#DejaVuSans-7a" transform="translate(2440.771484 0)"/>
     </g>
    </g>
   </g>
  </g>
  <g id="axes_2">
   <g id="patch_8">
    <path d="M 57.474063 487.8 
L 881.154063 487.8 
L 881.154063 268.669565 
L 57.474063 268.669565 
z
" style="fill: #f8fafc"/>
   </g>
   <g id="matplotlib.axis_3">
    <g id="xtick_7">
     <g id="line2d_36">
      <path d="M 57.474063 487.8 
L 57.474063 268.669565 
" clip-path="url(#p7a7b84d2e6)" style="fill: none; stroke-dasharray: 0.5,0.825; stroke-dashoffset: 0; stroke: #cbd5e1; stroke-width: 0.5"/>
     </g>
     <g id="line2d_37">
      <g>
       <use xlink:href="#m873f4bed93" x="57.474063" y="487.8" style="fill: #1e293b; stroke: #1e293b; stroke-width: 0.8"/>
      </g>
     </g>
     <g id="text_14">
      <!-- 0 -->
      <g style="fill: #1e293b" transform="translate(54.292813 502.398438) scale(0.1 -0.1)">
       <use xlink:href="#DejaVuSans-30"/>
      </g>
     </g>
    </g>
    <g id="xtick_8">
     <g id="line2d_38">
      <path d="M 194.983244 487.8 
L 194.983244 268.669565 
" clip-path="url(#p7a7b84d2e6)" style="fill: none; stroke-dasharray: 0.5,0.825; stroke-dashoffset: 0; stroke: #cbd5e1; stroke-width: 0.5"/>
     </g>
     <g id="line2d_39">
      <g>
       <use xlink:href="#m873f4bed93" x="194.983244" y="487.8" style="fill: #1e293b; stroke: #1e293b; stroke-width: 0.8"/>
      </g>
     </g>
     <g id="text_15">
      <!-- 2 -->
      <g style="fill: #1e293b" transform="translate(191.801994 502.398438) scale(0.1 -0.1)">
       <use xlink:href="#DejaVuSans-32"/>
      </g>
     </g>
    </g>
    <g id="xtick_9">
     <g id="line2d_40">
      <path d="M 332.492426 487.8 
L 332.492426 268.669565 
" clip-path="url(#p7a7b84d2e6)" style="fill: none; stroke-dasharray: 0.5,0.825; stroke-dashoffset: 0; stroke: #cbd5e1; stroke-width: 0.5"/>
     </g>
     <g id="line2d_41">
      <g>
       <use xlink:href="#m873f4bed93" x="332.492426" y="487.8" style="fill: #1e293b; stroke: #1e293b; stroke-width: 0.8"/>
      </g>
     </g>
     <g id="text_16">
      <!-- 4 -->
      <g style="fill: #1e293b" transform="translate(329.311176 502.398438) scale(0.1 -0.1)">
       <use xlink:href="#DejaVuSans-34"/>
      </g>
     </g>
    </g>
    <g id="xtick_10">
     <g id="line2d_42">
      <path d="M 470.001608 487.8 
L 470.001608 268.669565 
" clip-path="url(#p7a7b84d2e6)" style="fill: none; stroke-dasharray: 0.5,0.825; stroke-dashoffset: 0; stroke: #cbd5e1; stroke-width: 0.5"/>
     </g>
     <g id="line2d_43">
      <g>
       <use xlink:href="#m873f4bed93" x="470.001608" y="487.8" style="fill: #1e293b; stroke: #1e293b; stroke-width: 0.8"/>
      </g>
     </g>
     <g id="text_17">
      <!-- 6 -->
      <g style="fill: #1e293b" transform="translate(466.820358 502.398438) scale(0.1 -0.1)">
       <use xlink:href="#DejaVuSans-36"/>
      </g>
     </g>
    </g>
    <g id="xtick_11">
     <g id="line2d_44">
      <path d="M 607.51079 487.8 
L 607.51079 268.669565 
" clip-path="url(#p7a7b84d2e6)" style="fill: none; stroke-dasharray: 0.5,0.825; stroke-dashoffset: 0; stroke: #cbd5e1; stroke-width: 0.5"/>
     </g>
     <g id="line2d_45">
      <g>
       <use xlink:href="#m873f4bed93" x="607.51079" y="487.8" style="fill: #1e293b; stroke: #1e293b; stroke-width: 0.8"/>
      </g>
     </g>
     <g id="text_18">
      <!-- 8 -->
      <g style="fill: #1e293b" transform="translate(604.32954 502.398438) scale(0.1 -0.1)">
       <use xlink:href="#DejaVuSans-38"/>
      </g>
     </g>
    </g>
    <g id="xtick_12">
     <g id="line2d_46">
      <path d="M 745.019972 487.8 
L 745.019972 268.669565 
" clip-path="url(#p7a7b84d2e6)" style="fill: none; stroke-dasharray: 0.5,0.825; stroke-dashoffset: 0; stroke: #cbd5e1; stroke-width: 0.5"/>
     </g>
     <g id="line2d_47">
      <g>
       <use xlink:href="#m873f4bed93" x="745.019972" y="487.8" style="fill: #1e293b; stroke: #1e293b; stroke-width: 0.8"/>
      </g>
     </g>
     <g id="text_19">
      <!-- 10 -->
      <g style="fill: #1e293b" transform="translate(738.657472 502.398438) scale(0.1 -0.1)">
       <use xlink:href="#DejaVuSans-31"/>
       <use xlink:href="#DejaVuSans-30" transform="translate(63.623047 0)"/>
      </g>
     </g>
    </g>
    <g id="text_20">
     <!-- Time (µs) -->
     <g style="fill: #1e293b" transform="translate(443.452891 516.836406) scale(0.11 -0.11)">
      <defs>
       <path id="DejaVuSans-54" d="M -19 4666 
L 3928 4666 
L 3928 4134 
L 2272 4134 
L 2272 0 
L 1638 0 
L 1638 4134 
L -19 4134 
L -19 4666 
z
" transform="scale(0.015625)"/>
       <path id="DejaVuSans-69" d="M 603 3500 
L 1178 3500 
L 1178 0 
L 603 0 
L 603 3500 
z
M 603 4863 
L 1178 4863 
L 1178 4134 
L 603 4134 
L 603 4863 
z
" transform="scale(0.015625)"/>
       <path id="DejaVuSans-6d" d="M 3328 2828 
Q 3544 3216 3844 3400 
Q 4144 3584 4550 3584 
Q 5097 3584 5394 3201 
Q 5691 2819 5691 2113 
L 5691 0 
L 5113 0 
L 5113 2094 
Q 5113 2597 4934 2840 
Q 4756 3084 4391 3084 
Q 3944 3084 3684 2787 
Q 3425 2491 3425 1978 
L 3425 0 
L 2847 0 
L 2847 2094 
Q 2847 2600 2669 2842 
Q 2491 3084 2119 3084 
Q 1678 3084 1418 2786 
Q 1159 2488 1159 1978 
L 1159 0 
L 581 0 
L 581 3500 
L 1159 3500 
L 1159 2956 
Q 1356 3278 1631 3431 
Q 1906 3584 2284 3584 
Q 2666 3584 2933 3390 
Q 3200 3197 3328 2828 
z
" transform="scale(0.015625)"/>
       <path id="DejaVuSans-b5" d="M 544 -1331 
L 544 3500 
L 1119 3500 
L 1119 1325 
Q 1119 872 1334 640 
Q 1550 409 1972 409 
Q 2434 409 2667 671 
Q 2900 934 2900 1459 
L 2900 3500 
L 3475 3500 
L 3475 806 
Q 3475 619 3529 530 
Q 3584 441 3700 441 
Q 3728 441 3778 458 
Q 3828 475 3916 513 
L 3916 50 
Q 3788 -22 3673 -56 
Q 3559 -91 3450 -91 
Q 3234 -91 3106 31 
Q 2978 153 2931 403 
Q 2775 156 2548 32 
Q 2322 -91 2016 -91 
Q 1697 -91 1473 31 
Q 1250 153 1119 397 
L 1119 -1331 
L 544 -1331 
z
" transform="scale(0.015625)"/>
       <path id="DejaVuSans-73" d="M 2834 3397 
L 2834 2853 
Q 2591 2978 2328 3040 
Q 2066 3103 1784 3103 
Q 1356 3103 1142 2972 
Q 928 2841 928 2578 
Q 928 2378 1081 2264 
Q 1234 2150 1697 2047 
L 1894 2003 
Q 2506 1872 2764 1633 
Q 3022 1394 3022 966 
Q 3022 478 2636 193 
Q 2250 -91 1575 -91 
Q 1294 -91 989 -36 
Q 684 19 347 128 
L 347 722 
Q 666 556 975 473 
Q 1284 391 1588 391 
Q 1994 391 2212 530 
Q 2431 669 2431 922 
Q 2431 1156 2273 1281 
Q 2116 1406 1581 1522 
L 1381 1569 
Q 847 1681 609 1914 
Q 372 2147 372 2553 
Q 372 3047 722 3315 
Q 1072 3584 1716 3584 
Q 2034 3584 2315 3537 
Q 2597 3491 2834 3397 
z
" transform="scale(0.015625)"/>
      </defs>
      <use xlink:href="#DejaVuSans-54"/>
      <use xlink:href="#DejaVuSans-69" transform="translate(57.958984 0)"/>
      <use xlink:href="#DejaVuSans-6d" transform="translate(85.742188 0)"/>
      <use xlink:href="#DejaVuSans-65" transform="translate(183.154297 0)"/>
      <use xlink:href="#DejaVuSans-20" transform="translate(244.677734 0)"/>
      <use xlink:href="#DejaVuSans-28" transform="translate(276.464844 0)"/>
      <use xlink:href="#DejaVuSans-b5" transform="translate(315.478516 0)"/>
      <use xlink:href="#DejaVuSans-73" transform="translate(379.101562 0)"/>
      <use xlink:href="#DejaVuSans-29" transform="translate(431.201172 0)"/>
     </g>
    </g>
   </g>
   <g id="matplotlib.axis_4">
    <g id="ytick_9">
     <g id="line2d_48">
      <path d="M 57.474063 477.839526 
L 881.154063 477.839526 
" clip-path="url(#p7a7b84d2e6)" style="fill: none; stroke-dasharray: 0.5,0.825; stroke-dashoffset: 0; stroke: #cbd5e1; stroke-width: 0.5"/>
     </g>
     <g id="line2d_49">
      <g>
       <use xlink:href="#mf91532ecca" x="57.474063" y="477.839526" style="fill: #1e293b; stroke: #1e293b; stroke-width: 0.8"/>
      </g>
     </g>
     <g id="text_21">
      <!-- 0 -->
      <g style="fill: #1e293b" transform="translate(44.111563 481.638744) scale(0.1 -0.1)">
       <use xlink:href="#DejaVuSans-30"/>
      </g>
     </g>
    </g>
    <g id="ytick_10">
     <g id="line2d_50">
      <path d="M 57.474063 450.759155 
L 881.154063 450.759155 
" clip-path="url(#p7a7b84d2e6)" style="fill: none; stroke-dasharray: 0.5,0.825; stroke-dashoffset: 0; stroke: #cbd5e1; stroke-width: 0.5"/>
     </g>
     <g id="line2d_51">
      <g>
       <use xlink:href="#mf91532ecca" x="57.474063" y="450.759155" style="fill: #1e293b; stroke: #1e293b; stroke-width: 0.8"/>
      </g>
     </g>
     <g id="text_22">
      <!-- 5 -->
      <g style="fill: #1e293b" transform="translate(44.111563 454.558374) scale(0.1 -0.1)">
       <use xlink:href="#DejaVuSans-35"/>
      </g>
     </g>
    </g>
    <g id="ytick_11">
     <g id="line2d_52">
      <path d="M 57.474063 423.678784 
L 881.154063 423.678784 
" clip-path="url(#p7a7b84d2e6)" style="fill: none; stroke-dasharray: 0.5,0.825; stroke-dashoffset: 0; stroke: #cbd5e1; stroke-width: 0.5"/>
     </g>
     <g id="line2d_53">
      <g>
       <use xlink:href="#mf91532ecca" x="57.474063" y="423.678784" style="fill: #1e293b; stroke: #1e293b; stroke-width: 0.8"/>
      </g>
     </g>
     <g id="text_23">
      <!-- 10 -->
      <g style="fill: #1e293b" transform="translate(37.749063 427.478003) scale(0.1 -0.1)">
       <use xlink:href="#DejaVuSans-31"/>
       <use xlink:href="#DejaVuSans-30" transform="translate(63.623047 0)"/>
      </g>
     </g>
    </g>
    <g id="ytick_12">
     <g id="line2d_54">
      <path d="M 57.474063 396.598414 
L 881.154063 396.598414 
" clip-path="url(#p7a7b84d2e6)" style="fill: none; stroke-dasharray: 0.5,0.825; stroke-dashoffset: 0; stroke: #cbd5e1; stroke-width: 0.5"/>
     </g>
     <g id="line2d_55">
      <g>
       <use xlink:href="#mf91532ecca" x="57.474063" y="396.598414" style="fill: #1e293b; stroke: #1e293b; stroke-width: 0.8"/>
      </g>
     </g>
     <g id="text_24">
      <!-- 15 -->
      <g style="fill: #1e293b" transform="translate(37.749063 400.397633) scale(0.1 -0.1)">
       <use xlink:href="#DejaVuSans-31"/>
       <use xlink:href="#DejaVuSans-35" transform="translate(63.623047 0)"/>
      </g>
     </g>
    </g>
    <g id="ytick_13">
     <g id="line2d_56">
      <path d="M 57.474063 369.518043 
L 881.154063 369.518043 
" clip-path="url(#p7a7b84d2e6)" style="fill: none; stroke-dasharray: 0.5,0.825; stroke-dashoffset: 0; stroke: #cbd5e1; stroke-width: 0.5"/>
     </g>
     <g id="line2d_57">
      <g>
       <use xlink:href="#mf91532ecca" x="57.474063" y="369.518043" style="fill: #1e293b; stroke: #1e293b; stroke-width: 0.8"/>
      </g>
     </g>
     <g id="text_25">
      <!-- 20 -->
      <g style="fill: #1e293b" transform="translate(37.749063 373.317262) scale(0.1 -0.1)">
       <use xlink:href="#DejaVuSans-32"/>
       <use xlink:href="#DejaVuSans-30" transform="translate(63.623047 0)"/>
      </g>
     </g>
    </g>
    <g id="ytick_14">
     <g id="line2d_58">
      <path d="M 57.474063 342.437673 
L 881.154063 342.437673 
" clip-path="url(#p7a7b84d2e6)" style="fill: none; stroke-dasharray: 0.5,0.825; stroke-dashoffset: 0; stroke: #cbd5e1; stroke-width: 0.5"/>
     </g>
     <g id="line2d_59">
      <g>
       <use xlink:href="#mf91532ecca" x="57.474063" y="342.437673" style="fill: #1e293b; stroke: #1e293b; stroke-width: 0.8"/>
      </g>
     </g>
     <g id="text_26">
      <!-- 25 -->
      <g style="fill: #1e293b" transform="translate(37.749063 346.236891) scale(0.1 -0.1)">
       <use xlink:href="#DejaVuSans-32"/>
       <use xlink:href="#DejaVuSans-35" transform="translate(63.623047 0)"/>
      </g>
     </g>
    </g>
    <g id="ytick_15">
     <g id="line2d_60">
      <path d="M 57.474063 315.357302 
L 881.154063 315.357302 
" clip-path="url(#p7a7b84d2e6)" style="fill: none; stroke-dasharray: 0.5,0.825; stroke-dashoffset: 0; stroke: #cbd5e1; stroke-width: 0.5"/>
     </g>
     <g id="line2d_61">
      <g>
       <use xlink:href="#mf91532ecca" x="57.474063" y="315.357302" style="fill: #1e293b; stroke: #1e293b; stroke-width: 0.8"/>
      </g>
     </g>
     <g id="text_27">
      <!-- 30 -->
      <g style="fill: #1e293b" transform="translate(37.749063 319.156521) scale(0.1 -0.1)">
       <use xlink:href="#DejaVuSans-33"/>
       <use xlink:href="#DejaVuSans-30" transform="translate(63.623047 0)"/>
      </g>
     </g>
    </g>
    <g id="ytick_16">
     <g id="line2d_62">
      <path d="M 57.474063 288.276931 
L 881.154063 288.276931 
" clip-path="url(#p7a7b84d2e6)" style="fill: none; stroke-dasharray: 0.5,0.825; stroke-dashoffset: 0; stroke: #cbd5e1; stroke-width: 0.5"/>
     </g>
     <g id="line2d_63">
      <g>
       <use xlink:href="#mf91532ecca" x="57.474063" y="288.276931" style="fill: #1e293b; stroke: #1e293b; stroke-width: 0.8"/>
      </g>
     </g>
     <g id="text_28">
      <!-- 35 -->
      <g style="fill: #1e293b" transform="translate(37.749063 292.07615) scale(0.1 -0.1)">
       <use xlink:href="#DejaVuSans-33"/>
       <use xlink:href="#DejaVuSans-35" transform="translate(63.623047 0)"/>
      </g>
     </g>
    </g>
    <g id="text_29">
     <!-- $V_{tune}$ (mV) -->
     <g style="fill: #1e293b" transform="translate(31.461406 406.119783) rotate(-90) scale(0.11 -0.11)">
      <defs>
       <path id="DejaVuSans-Oblique-56" d="M 1319 0 
L 500 4666 
L 1119 4666 
L 1797 653 
L 4063 4666 
L 4750 4666 
L 2053 0 
L 1319 0 
z
" transform="scale(0.015625)"/>
       <path id="DejaVuSans-Oblique-6e" d="M 3566 2113 
L 3156 0 
L 2578 0 
L 2988 2091 
Q 3016 2238 3031 2350 
Q 3047 2463 3047 2528 
Q 3047 2791 2881 2937 
Q 2716 3084 2419 3084 
Q 1956 3084 1622 2776 
Q 1288 2469 1184 1941 
L 800 0 
L 225 0 
L 903 3500 
L 1478 3500 
L 1363 2950 
Q 1603 3253 1940 3418 
Q 2278 3584 2650 3584 
Q 3113 3584 3367 3334 
Q 3622 3084 3622 2631 
Q 3622 2519 3608 2391 
Q 3594 2263 3566 2113 
z
" transform="scale(0.015625)"/>
       <path id="DejaVuSans-Oblique-65" d="M 3078 2063 
Q 3088 2113 3092 2166 
Q 3097 2219 3097 2272 
Q 3097 2653 2873 2875 
Q 2650 3097 2266 3097 
Q 1838 3097 1509 2826 
Q 1181 2556 1013 2059 
L 3078 2063 
z
M 3578 1613 
L 903 1613 
Q 884 1494 878 1425 
Q 872 1356 872 1306 
Q 872 872 1139 634 
Q 1406 397 1894 397 
Q 2269 397 2603 481 
Q 2938 566 3225 728 
L 3116 159 
Q 2806 34 2476 -28 
Q 2147 -91 1806 -91 
Q 1078 -91 686 257 
Q 294 606 294 1247 
Q 294 1794 489 2264 
Q 684 2734 1063 3103 
Q 1306 3334 1642 3459 
Q 1978 3584 2356 3584 
Q 2950 3584 3301 3228 
Q 3653 2872 3653 2272 
Q 3653 2128 3634 1964 
Q 3616 1800 3578 1613 
z
" transform="scale(0.015625)"/>
       <path id="DejaVuSans-56" d="M 1831 0 
L 50 4666 
L 709 4666 
L 2188 738 
L 3669 4666 
L 4325 4666 
L 2547 0 
L 1831 0 
z
" transform="scale(0.015625)"/>
      </defs>
      <use xlink:href="#DejaVuSans-Oblique-56" transform="translate(0 0.125)"/>
      <use xlink:href="#DejaVuSans-Oblique-74" transform="translate(68.408203 -16.28125) scale(0.7)"/>
      <use xlink:href="#DejaVuSans-Oblique-75" transform="translate(95.854492 -16.28125) scale(0.7)"/>
      <use xlink:href="#DejaVuSans-Oblique-6e" transform="translate(140.219727 -16.28125) scale(0.7)"/>
      <use xlink:href="#DejaVuSans-Oblique-65" transform="translate(184.584961 -16.28125) scale(0.7)"/>
      <use xlink:href="#DejaVuSans-20" transform="translate(230.385742 0.125)"/>
      <use xlink:href="#DejaVuSans-28" transform="translate(262.172852 0.125)"/>
      <use xlink:href="#DejaVuSans-6d" transform="translate(301.186523 0.125)"/>
      <use xlink:href="#DejaVuSans-56" transform="translate(398.598633 0.125)"/>
      <use xlink:href="#DejaVuSans-29" transform="translate(467.006836 0.125)"/>
     </g>
    </g>
   </g>
   <g id="line2d_64">
    <path d="M 57.474063 477.839526 
L 58.849154 477.839526 
L 60.224246 474.514735 
L 61.599338 469.477224 
L 62.97443 463.014257 
L 64.349522 455.300922 
L 65.724613 446.508808 
L 68.474797 426.392888 
L 71.224981 404.084145 
L 76.725348 358.297049 
L 79.475532 337.20435 
L 82.225715 318.596593 
L 83.600807 310.44904 
L 84.975899 303.162804 
L 86.350991 296.787191 
L 87.726083 291.356862 
L 89.101174 286.892185 
L 90.476266 283.39975 
L 91.851358 280.873037 
L 93.22645 279.293213 
L 94.601542 278.63004 
L 95.976633 278.842886 
L 97.351725 279.881928 
L 98.726817 281.691377 
L 100.101909 284.206815 
L 101.477001 287.356824 
L 102.852093 291.065337 
L 104.227184 295.253002 
L 106.977368 304.739388 
L 111.102643 320.523924 
L 115.227919 336.331932 
L 117.978103 345.992963 
L 120.728286 354.457345 
L 122.103378 358.14053 
L 123.47847 361.417868 
L 124.853562 364.268067 
L 126.228653 366.676618 
L 127.603745 368.635611 
L 128.978837 370.143482 
L 130.353929 371.20469 
L 131.729021 371.829335 
L 133.104113 372.032716 
L 134.479204 371.834854 
L 135.854296 371.259876 
L 137.229388 370.335141 
L 138.60448 369.091622 
L 139.979572 367.562969 
L 141.354664 365.7848 
L 144.104847 361.628685 
L 146.855031 356.925665 
L 153.73049 344.685469 
L 156.480674 340.266703 
L 159.230857 336.423005 
L 160.605949 334.761395 
L 161.981041 333.290718 
L 163.356133 332.020074 
L 164.731224 330.955435 
L 166.106316 330.099732 
L 167.481408 329.452983 
L 168.8565 329.01245 
L 170.231592 328.772825 
L 171.606684 328.726436 
L 172.981775 328.863477 
L 174.356867 329.1723 
L 175.731959 329.639673 
L 177.107051 330.25088 
L 179.857234 331.840604 
L 182.607418 333.80632 
L 186.732694 337.153687 
L 192.233061 341.664972 
L 194.983244 343.683737 
L 197.733428 345.426786 
L 200.483612 346.833821 
L 203.233795 347.868084 
L 205.983979 348.515756 
L 208.734163 348.784257 
L 211.484346 348.699634 
L 214.23453 348.303208 
L 216.984714 347.647944 
L 219.734897 346.794585 
L 223.860173 345.284352 
L 232.110724 342.196992 
L 236.235999 340.961231 
L 238.986183 340.330223 
L 241.736366 339.873362 
L 244.48655 339.595762 
L 247.236734 339.492822 
L 249.986917 339.551483 
L 254.112193 339.897381 
L 258.237468 340.473583 
L 276.113662 343.314146 
L 280.238937 343.64681 
L 284.364213 343.793668 
L 289.86458 343.723986 
L 295.364947 343.421857 
L 317.366416 341.907705 
L 324.241876 341.805346 
L 332.492426 341.949386 
L 359.994263 342.726345 
L 370.994997 342.659012 
L 401.247017 342.302366 
L 423.248487 342.445387 
L 445.249956 342.49104 
L 501.62872 342.442296 
L 585.509321 342.440202 
L 881.154063 342.435905 
L 881.154063 342.435905 
" clip-path="url(#p7a7b84d2e6)" style="fill: none; stroke: #ef4444; stroke-width: 1.4; stroke-linecap: square"/>
   </g>
   <g id="line2d_65">
    <path d="M 57.474063 477.839526 
L 58.849154 477.839526 
L 60.224246 468.945385 
L 61.599338 456.297038 
L 65.724613 415.114134 
L 68.474797 391.176558 
L 69.849889 380.78287 
L 71.224981 371.464021 
L 72.600073 363.198292 
L 73.975164 355.946059 
L 75.350256 349.656016 
L 76.725348 344.269193 
L 78.10044 339.721773 
L 79.475532 335.9472 
L 80.850623 332.877819 
L 82.225715 330.446177 
L 83.600807 328.586069 
L 84.975899 327.233366 
L 86.350991 326.326662 
L 87.726083 325.807761 
L 89.101174 325.622043 
L 90.476266 325.718698 
L 91.851358 326.050877 
L 93.22645 326.575745 
L 95.976633 328.052198 
L 98.726817 329.884025 
L 106.977368 335.711754 
L 109.727552 337.398737 
L 112.477735 338.865558 
L 115.227919 340.096297 
L 117.978103 341.092751 
L 120.728286 341.869131 
L 123.47847 342.447604 
L 126.228653 342.854714 
L 130.353929 343.205595 
L 134.479204 343.32594 
L 139.979572 343.264646 
L 172.981775 342.411666 
L 193.608153 342.407544 
L 262.362744 342.437552 
L 881.154063 342.435951 
L 881.154063 342.435951 
" clip-path="url(#p7a7b84d2e6)" style="fill: none; stroke: #3b82f6; stroke-width: 1.4; stroke-linecap: square"/>
   </g>
   <g id="line2d_66">
    <path d="M 57.474063 477.839526 
L 58.849154 477.839526 
L 60.224246 463.734523 
L 61.599338 441.034907 
L 64.349522 388.622344 
L 65.724613 365.695337 
L 67.099705 347.57236 
L 68.474797 334.918721 
L 69.849889 327.595716 
L 71.224981 324.901707 
L 72.600073 325.809483 
L 73.975164 329.173959 
L 75.350256 333.894916 
L 78.10044 343.851986 
L 79.475532 347.879764 
L 80.850623 350.854909 
L 82.225715 352.71232 
L 83.600807 353.532423 
L 84.975899 353.491139 
L 86.350991 352.813121 
L 87.726083 351.732639 
L 91.851358 348.022082 
L 93.22645 347.056792 
L 94.601542 346.324588 
L 95.976633 345.825526 
L 97.351725 345.533899 
L 98.726817 345.408363 
L 101.477001 345.4645 
L 106.977368 345.73642 
L 109.727552 345.659937 
L 113.852827 345.314577 
L 122.103378 344.575891 
L 130.353929 344.174496 
L 152.355398 343.415561 
L 172.981775 343.006067 
L 199.10852 342.722864 
L 238.986183 342.537182 
L 314.616233 342.451178 
L 673.515198 342.436544 
L 881.154063 342.436544 
L 881.154063 342.436544 
" clip-path="url(#p7a7b84d2e6)" style="fill: none; stroke: #f59e0b; stroke-width: 1.4; stroke-linecap: square"/>
   </g>
   <g id="line2d_67">
    <path d="M 57.474063 342.437673 
L 881.154063 342.437673 
" clip-path="url(#p7a7b84d2e6)" style="fill: none; stroke-dasharray: 4.07,1.76; stroke-dashoffset: 0; stroke: #16a34a; stroke-opacity: 0.9; stroke-width: 1.1"/>
   </g>
   <g id="patch_9">
    <path d="M 57.474063 487.8 
L 57.474063 268.669565 
" style="fill: none; stroke: #cbd5e1; stroke-width: 0.8; stroke-linejoin: miter; stroke-linecap: square"/>
   </g>
   <g id="patch_10">
    <path d="M 881.154063 487.8 
L 881.154063 268.669565 
" style="fill: none; stroke: #cbd5e1; stroke-width: 0.8; stroke-linejoin: miter; stroke-linecap: square"/>
   </g>
   <g id="patch_11">
    <path d="M 57.474063 487.8 
L 881.154063 487.8 
" style="fill: none; stroke: #cbd5e1; stroke-width: 0.8; stroke-linejoin: miter; stroke-linecap: square"/>
   </g>
   <g id="patch_12">
    <path d="M 57.474063 268.669565 
L 881.154063 268.669565 
" style="fill: none; stroke: #cbd5e1; stroke-width: 0.8; stroke-linejoin: miter; stroke-linecap: square"/>
   </g>
   <g id="text_30">
    <!-- $V_{tune,lock}$ = 25 mV -->
    <g style="fill: #16a34a" transform="translate(789.598862 465.886957) scale(0.09 -0.09)">
     <defs>
      <path id="DejaVuSans-2c" d="M 750 794 
L 1409 794 
L 1409 256 
L 897 -744 
L 494 -744 
L 750 256 
L 750 794 
z
" transform="scale(0.015625)"/>
      <path id="DejaVuSans-Oblique-6c" d="M 1172 4863 
L 1747 4863 
L 800 0 
L 225 0 
L 1172 4863 
z
" transform="scale(0.015625)"/>
      <path id="DejaVuSans-Oblique-63" d="M 3431 3366 
L 3316 2797 
Q 3109 2947 2876 3022 
Q 2644 3097 2394 3097 
Q 2119 3097 1870 3000 
Q 1622 2903 1453 2725 
Q 1184 2453 1037 2087 
Q 891 1722 891 1331 
Q 891 859 1127 628 
Q 1363 397 1844 397 
Q 2081 397 2348 469 
Q 2616 541 2906 684 
L 2797 116 
Q 2547 13 2283 -39 
Q 2019 -91 1741 -91 
Q 1044 -91 669 257 
Q 294 606 294 1253 
Q 294 1797 489 2255 
Q 684 2713 1069 3078 
Q 1331 3328 1684 3456 
Q 2038 3584 2456 3584 
Q 2700 3584 2940 3529 
Q 3181 3475 3431 3366 
z
" transform="scale(0.015625)"/>
      <path id="DejaVuSans-Oblique-6b" d="M 1172 4863 
L 1747 4863 
L 1197 2028 
L 3169 3500 
L 3916 3500 
L 1716 1825 
L 3322 0 
L 2625 0 
L 1131 1709 
L 800 0 
L 225 0 
L 1172 4863 
z
" transform="scale(0.015625)"/>
     </defs>
     <use xlink:href="#DejaVuSans-Oblique-56" transform="translate(0 0.78125)"/>
     <use xlink:href="#DejaVuSans-Oblique-74" transform="translate(68.408203 -15.625) scale(0.7)"/>
     <use xlink:href="#DejaVuSans-Oblique-75" transform="translate(95.854492 -15.625) scale(0.7)"/>
     <use xlink:href="#DejaVuSans-Oblique-6e" transform="translate(140.219727 -15.625) scale(0.7)"/>
     <use xlink:href="#DejaVuSans-Oblique-65" transform="translate(184.584961 -15.625) scale(0.7)"/>
     <use xlink:href="#DejaVuSans-2c" transform="translate(227.651367 -15.625) scale(0.7)"/>
     <use xlink:href="#DejaVuSans-Oblique-6c" transform="translate(263.540039 -15.625) scale(0.7)"/>
     <use xlink:href="#DejaVuSans-Oblique-6f" transform="translate(282.988281 -15.625) scale(0.7)"/>
     <use xlink:href="#DejaVuSans-Oblique-63" transform="translate(325.81543 -15.625) scale(0.7)"/>
     <use xlink:href="#DejaVuSans-Oblique-6b" transform="translate(364.301758 -15.625) scale(0.7)"/>
     <use xlink:href="#DejaVuSans-20" transform="translate(407.573242 0.78125)"/>
     <use xlink:href="#DejaVuSans-3d" transform="translate(439.360352 0.78125)"/>
     <use xlink:href="#DejaVuSans-20" transform="translate(523.149414 0.78125)"/>
     <use xlink:href="#DejaVuSans-32" transform="translate(554.936523 0.78125)"/>
     <use xlink:href="#DejaVuSans-35" transform="translate(618.55957 0.78125)"/>
     <use xlink:href="#DejaVuSans-20" transform="translate(682.182617 0.78125)"/>
     <use xlink:href="#DejaVuSans-6d" transform="translate(713.969727 0.78125)"/>
     <use xlink:href="#DejaVuSans-56" transform="translate(811.381836 0.78125)"/>
    </g>
   </g>
  </g>
  <g id="text_31">
   <!-- CP-PLL Transient — Loop Filter Comparison  ($\Delta f = 5$ MHz) -->
   <g style="fill: #1e293b" transform="translate(251.034063 16.32) scale(0.12 -0.12)">
    <defs>
     <path id="DejaVuSans-Bold-43" d="M 4288 256 
Q 3956 84 3597 -3 
Q 3238 -91 2847 -91 
Q 1681 -91 1000 561 
Q 319 1213 319 2328 
Q 319 3447 1000 4098 
Q 1681 4750 2847 4750 
Q 3238 4750 3597 4662 
Q 3956 4575 4288 4403 
L 4288 3438 
Q 3953 3666 3628 3772 
Q 3303 3878 2944 3878 
Q 2300 3878 1931 3465 
Q 1563 3053 1563 2328 
Q 1563 1606 1931 1193 
Q 2300 781 2944 781 
Q 3303 781 3628 887 
Q 3953 994 4288 1222 
L 4288 256 
z
" transform="scale(0.015625)"/>
     <path id="DejaVuSans-Bold-50" d="M 588 4666 
L 2584 4666 
Q 3475 4666 3951 4270 
Q 4428 3875 4428 3144 
Q 4428 2409 3951 2014 
Q 3475 1619 2584 1619 
L 1791 1619 
L 1791 0 
L 588 0 
L 588 4666 
z
M 1791 3794 
L 1791 2491 
L 2456 2491 
Q 2806 2491 2997 2661 
Q 3188 2831 3188 3144 
Q 3188 3456 2997 3625 
Q 2806 3794 2456 3794 
L 1791 3794 
z
" transform="scale(0.015625)"/>
     <path id="DejaVuSans-Bold-2d" d="M 347 2297 
L 2309 2297 
L 2309 1388 
L 347 1388 
L 347 2297 
z
" transform="scale(0.015625)"/>
     <path id="DejaVuSans-Bold-4c" d="M 588 4666 
L 1791 4666 
L 1791 909 
L 3903 909 
L 3903 0 
L 588 0 
L 588 4666 
z
" transform="scale(0.015625)"/>
     <path id="DejaVuSans-Bold-20" transform="scale(0.015625)"/>
     <path id="DejaVuSans-Bold-54" d="M 31 4666 
L 4331 4666 
L 4331 3756 
L 2784 3756 
L 2784 0 
L 1581 0 
L 1581 3756 
L 31 3756 
L 31 4666 
z
" transform="scale(0.015625)"/>
     <path id="DejaVuSans-Bold-72" d="M 3138 2547 
Q 2991 2616 2845 2648 
Q 2700 2681 2553 2681 
Q 2122 2681 1889 2404 
Q 1656 2128 1656 1613 
L 1656 0 
L 538 0 
L 538 3500 
L 1656 3500 
L 1656 2925 
Q 1872 3269 2151 3426 
Q 2431 3584 2822 3584 
Q 2878 3584 2943 3579 
Q 3009 3575 3134 3559 
L 3138 2547 
z
" transform="scale(0.015625)"/>
     <path id="DejaVuSans-Bold-61" d="M 2106 1575 
Q 1756 1575 1579 1456 
Q 1403 1338 1403 1106 
Q 1403 894 1545 773 
Q 1688 653 1941 653 
Q 2256 653 2472 879 
Q 2688 1106 2688 1447 
L 2688 1575 
L 2106 1575 
z
M 3816 1997 
L 3816 0 
L 2688 0 
L 2688 519 
Q 2463 200 2181 54 
Q 1900 -91 1497 -91 
Q 953 -91 614 226 
Q 275 544 275 1050 
Q 275 1666 698 1953 
Q 1122 2241 2028 2241 
L 2688 2241 
L 2688 2328 
Q 2688 2594 2478 2717 
Q 2269 2841 1825 2841 
Q 1466 2841 1156 2769 
Q 847 2697 581 2553 
L 581 3406 
Q 941 3494 1303 3539 
Q 1666 3584 2028 3584 
Q 2975 3584 3395 3211 
Q 3816 2838 3816 1997 
z
" transform="scale(0.015625)"/>
     <path id="DejaVuSans-Bold-6e" d="M 4056 2131 
L 4056 0 
L 2931 0 
L 2931 347 
L 2931 1631 
Q 2931 2084 2911 2256 
Q 2891 2428 2841 2509 
Q 2775 2619 2662 2680 
Q 2550 2741 2406 2741 
Q 2056 2741 1856 2470 
Q 1656 2200 1656 1722 
L 1656 0 
L 538 0 
L 538 3500 
L 1656 3500 
L 1656 2988 
Q 1909 3294 2193 3439 
Q 2478 3584 2822 3584 
Q 3428 3584 3742 3212 
Q 4056 2841 4056 2131 
z
" transform="scale(0.015625)"/>
     <path id="DejaVuSans-Bold-73" d="M 3272 3391 
L 3272 2541 
Q 2913 2691 2578 2766 
Q 2244 2841 1947 2841 
Q 1628 2841 1473 2761 
Q 1319 2681 1319 2516 
Q 1319 2381 1436 2309 
Q 1553 2238 1856 2203 
L 2053 2175 
Q 2913 2066 3209 1816 
Q 3506 1566 3506 1031 
Q 3506 472 3093 190 
Q 2681 -91 1863 -91 
Q 1516 -91 1145 -36 
Q 775 19 384 128 
L 384 978 
Q 719 816 1070 734 
Q 1422 653 1784 653 
Q 2113 653 2278 743 
Q 2444 834 2444 1013 
Q 2444 1163 2330 1236 
Q 2216 1309 1875 1350 
L 1678 1375 
Q 931 1469 631 1722 
Q 331 1975 331 2491 
Q 331 3047 712 3315 
Q 1094 3584 1881 3584 
Q 2191 3584 2531 3537 
Q 2872 3491 3272 3391 
z
" transform="scale(0.015625)"/>
     <path id="DejaVuSans-Bold-69" d="M 538 3500 
L 1656 3500 
L 1656 0 
L 538 0 
L 538 3500 
z
M 538 4863 
L 1656 4863 
L 1656 3950 
L 538 3950 
L 538 4863 
z
" transform="scale(0.015625)"/>
     <path id="DejaVuSans-Bold-65" d="M 4031 1759 
L 4031 1441 
L 1416 1441 
Q 1456 1047 1700 850 
Q 1944 653 2381 653 
Q 2734 653 3104 758 
Q 3475 863 3866 1075 
L 3866 213 
Q 3469 63 3072 -14 
Q 2675 -91 2278 -91 
Q 1328 -91 801 392 
Q 275 875 275 1747 
Q 275 2603 792 3093 
Q 1309 3584 2216 3584 
Q 3041 3584 3536 3087 
Q 4031 2591 4031 1759 
z
M 2881 2131 
Q 2881 2450 2695 2645 
Q 2509 2841 2209 2841 
Q 1884 2841 1681 2658 
Q 1478 2475 1428 2131 
L 2881 2131 
z
" transform="scale(0.015625)"/>
     <path id="DejaVuSans-Bold-74" d="M 1759 4494 
L 1759 3500 
L 2913 3500 
L 2913 2700 
L 1759 2700 
L 1759 1216 
Q 1759 972 1856 886 
Q 1953 800 2241 800 
L 2816 800 
L 2816 0 
L 1856 0 
Q 1194 0 917 276 
Q 641 553 641 1216 
L 641 2700 
L 84 2700 
L 84 3500 
L 641 3500 
L 641 4494 
L 1759 4494 
z
" transform="scale(0.015625)"/>
     <path id="DejaVuSansDisplay-2014" d="M 313 1978 
L 6088 1978 
L 6088 1528 
L 313 1528 
L 313 1978 
z
" transform="scale(0.015625)"/>
     <path id="DejaVuSans-Bold-6f" d="M 2203 2784 
Q 1831 2784 1636 2517 
Q 1441 2250 1441 1747 
Q 1441 1244 1636 976 
Q 1831 709 2203 709 
Q 2569 709 2762 976 
Q 2956 1244 2956 1747 
Q 2956 2250 2762 2517 
Q 2569 2784 2203 2784 
z
M 2203 3584 
Q 3106 3584 3614 3096 
Q 4122 2609 4122 1747 
Q 4122 884 3614 396 
Q 3106 -91 2203 -91 
Q 1297 -91 786 396 
Q 275 884 275 1747 
Q 275 2609 786 3096 
Q 1297 3584 2203 3584 
z
" transform="scale(0.015625)"/>
     <path id="DejaVuSans-Bold-70" d="M 1656 506 
L 1656 -1331 
L 538 -1331 
L 538 3500 
L 1656 3500 
L 1656 2988 
Q 1888 3294 2169 3439 
Q 2450 3584 2816 3584 
Q 3463 3584 3878 3070 
Q 4294 2556 4294 1747 
Q 4294 938 3878 423 
Q 3463 -91 2816 -91 
Q 2450 -91 2169 54 
Q 1888 200 1656 506 
z
M 2400 2772 
Q 2041 2772 1848 2508 
Q 1656 2244 1656 1747 
Q 1656 1250 1848 986 
Q 2041 722 2400 722 
Q 2759 722 2948 984 
Q 3138 1247 3138 1747 
Q 3138 2247 2948 2509 
Q 2759 2772 2400 2772 
z
" transform="scale(0.015625)"/>
     <path id="DejaVuSans-Bold-46" d="M 588 4666 
L 3834 4666 
L 3834 3756 
L 1791 3756 
L 1791 2888 
L 3713 2888 
L 3713 1978 
L 1791 1978 
L 1791 0 
L 588 0 
L 588 4666 
z
" transform="scale(0.015625)"/>
     <path id="DejaVuSans-Bold-6c" d="M 538 4863 
L 1656 4863 
L 1656 0 
L 538 0 
L 538 4863 
z
" transform="scale(0.015625)"/>
     <path id="DejaVuSans-Bold-6d" d="M 3781 2919 
Q 3994 3244 4286 3414 
Q 4578 3584 4928 3584 
Q 5531 3584 5847 3212 
Q 6163 2841 6163 2131 
L 6163 0 
L 5038 0 
L 5038 1825 
Q 5041 1866 5042 1909 
Q 5044 1953 5044 2034 
Q 5044 2406 4934 2573 
Q 4825 2741 4581 2741 
Q 4263 2741 4089 2478 
Q 3916 2216 3909 1719 
L 3909 0 
L 2784 0 
L 2784 1825 
Q 2784 2406 2684 2573 
Q 2584 2741 2328 2741 
Q 2006 2741 1831 2477 
Q 1656 2213 1656 1722 
L 1656 0 
L 531 0 
L 531 3500 
L 1656 3500 
L 1656 2988 
Q 1863 3284 2130 3434 
Q 2397 3584 2719 3584 
Q 3081 3584 3359 3409 
Q 3638 3234 3781 2919 
z
" transform="scale(0.015625)"/>
     <path id="DejaVuSans-Bold-28" d="M 2413 -844 
L 1484 -844 
Q 1006 -72 778 623 
Q 550 1319 550 2003 
Q 550 2688 779 3389 
Q 1009 4091 1484 4856 
L 2413 4856 
Q 2013 4116 1813 3408 
Q 1613 2700 1613 2009 
Q 1613 1319 1811 609 
Q 2009 -100 2413 -844 
z
" transform="scale(0.015625)"/>
     <path id="DejaVuSans-394" d="M 2188 4044 
L 906 525 
L 3472 525 
L 2188 4044 
z
M 50 0 
L 1831 4666 
L 2547 4666 
L 4325 0 
L 50 0 
z
" transform="scale(0.015625)"/>
     <path id="DejaVuSans-Bold-4d" d="M 588 4666 
L 2119 4666 
L 3181 2169 
L 4250 4666 
L 5778 4666 
L 5778 0 
L 4641 0 
L 4641 3413 
L 3566 897 
L 2803 897 
L 1728 3413 
L 1728 0 
L 588 0 
L 588 4666 
z
" transform="scale(0.015625)"/>
     <path id="DejaVuSans-Bold-48" d="M 588 4666 
L 1791 4666 
L 1791 2888 
L 3566 2888 
L 3566 4666 
L 4769 4666 
L 4769 0 
L 3566 0 
L 3566 1978 
L 1791 1978 
L 1791 0 
L 588 0 
L 588 4666 
z
" transform="scale(0.015625)"/>
     <path id="DejaVuSans-Bold-7a" d="M 366 3500 
L 3419 3500 
L 3419 2719 
L 1575 800 
L 3419 800 
L 3419 0 
L 288 0 
L 288 781 
L 2131 2700 
L 366 2700 
L 366 3500 
z
" transform="scale(0.015625)"/>
     <path id="DejaVuSans-Bold-29" d="M 513 -844 
Q 913 -100 1113 609 
Q 1313 1319 1313 2009 
Q 1313 2700 1113 3408 
Q 913 4116 513 4856 
L 1441 4856 
Q 1916 4091 2145 3389 
Q 2375 2688 2375 2003 
Q 2375 1319 2147 623 
Q 1919 -72 1441 -844 
L 513 -844 
z
" transform="scale(0.015625)"/>
    </defs>
    <use xlink:href="#DejaVuSans-Bold-43" transform="translate(0 0.015625)"/>
    <use xlink:href="#DejaVuSans-Bold-50" transform="translate(73.388672 0.015625)"/>
    <use xlink:href="#DejaVuSans-Bold-2d" transform="translate(146.679688 0.015625)"/>
    <use xlink:href="#DejaVuSans-Bold-50" transform="translate(188.183594 0.015625)"/>
    <use xlink:href="#DejaVuSans-Bold-4c" transform="translate(261.474609 0.015625)"/>
    <use xlink:href="#DejaVuSans-Bold-4c" transform="translate(325.195312 0.015625)"/>
    <use xlink:href="#DejaVuSans-Bold-20" transform="translate(388.916016 0.015625)"/>
    <use xlink:href="#DejaVuSans-Bold-54" transform="translate(423.730469 0.015625)"/>
    <use xlink:href="#DejaVuSans-Bold-72" transform="translate(491.943359 0.015625)"/>
    <use xlink:href="#DejaVuSans-Bold-61" transform="translate(541.259766 0.015625)"/>
    <use xlink:href="#DejaVuSans-Bold-6e" transform="translate(608.740234 0.015625)"/>
    <use xlink:href="#DejaVuSans-Bold-73" transform="translate(679.931641 0.015625)"/>
    <use xlink:href="#DejaVuSans-Bold-69" transform="translate(739.453125 0.015625)"/>
    <use xlink:href="#DejaVuSans-Bold-65" transform="translate(773.730469 0.015625)"/>
    <use xlink:href="#DejaVuSans-Bold-6e" transform="translate(841.552734 0.015625)"/>
    <use xlink:href="#DejaVuSans-Bold-74" transform="translate(912.744141 0.015625)"/>
    <use xlink:href="#DejaVuSans-Bold-20" transform="translate(960.546875 0.015625)"/>
    <use xlink:href="#DejaVuSansDisplay-2014" transform="translate(995.361328 0.015625)"/>
    <use xlink:href="#DejaVuSans-Bold-20" transform="translate(1095.361328 0.015625)"/>
    <use xlink:href="#DejaVuSans-Bold-4c" transform="translate(1130.175781 0.015625)"/>
    <use xlink:href="#DejaVuSans-Bold-6f" transform="translate(1193.896484 0.015625)"/>
    <use xlink:href="#DejaVuSans-Bold-6f" transform="translate(1262.597656 0.015625)"/>
    <use xlink:href="#DejaVuSans-Bold-70" transform="translate(1331.298828 0.015625)"/>
    <use xlink:href="#DejaVuSans-Bold-20" transform="translate(1402.880859 0.015625)"/>
    <use xlink:href="#DejaVuSans-Bold-46" transform="translate(1437.695312 0.015625)"/>
    <use xlink:href="#DejaVuSans-Bold-69" transform="translate(1506.005859 0.015625)"/>
    <use xlink:href="#DejaVuSans-Bold-6c" transform="translate(1540.283203 0.015625)"/>
    <use xlink:href="#DejaVuSans-Bold-74" transform="translate(1574.560547 0.015625)"/>
    <use xlink:href="#DejaVuSans-Bold-65" transform="translate(1622.363281 0.015625)"/>
    <use xlink:href="#DejaVuSans-Bold-72" transform="translate(1690.185547 0.015625)"/>
    <use xlink:href="#DejaVuSans-Bold-20" transform="translate(1739.501953 0.015625)"/>
    <use xlink:href="#DejaVuSans-Bold-43" transform="translate(1774.316406 0.015625)"/>
    <use xlink:href="#DejaVuSans-Bold-6f" transform="translate(1847.705078 0.015625)"/>
    <use xlink:href="#DejaVuSans-Bold-6d" transform="translate(1916.40625 0.015625)"/>
    <use xlink:href="#DejaVuSans-Bold-70" transform="translate(2020.605469 0.015625)"/>
    <use xlink:href="#DejaVuSans-Bold-61" transform="translate(2092.1875 0.015625)"/>
    <use xlink:href="#DejaVuSans-Bold-72" transform="translate(2159.667969 0.015625)"/>
    <use xlink:href="#DejaVuSans-Bold-69" transform="translate(2208.984375 0.015625)"/>
    <use xlink:href="#DejaVuSans-Bold-73" transform="translate(2243.261719 0.015625)"/>
    <use xlink:href="#DejaVuSans-Bold-6f" transform="translate(2302.783203 0.015625)"/>
    <use xlink:href="#DejaVuSans-Bold-6e" transform="translate(2371.484375 0.015625)"/>
    <use xlink:href="#DejaVuSans-Bold-20" transform="translate(2442.675781 0.015625)"/>
    <use xlink:href="#DejaVuSans-Bold-20" transform="translate(2477.490234 0.015625)"/>
    <use xlink:href="#DejaVuSans-Bold-28" transform="translate(2512.304688 0.015625)"/>
    <use xlink:href="#DejaVuSans-394" transform="translate(2558.007812 0.015625)"/>
    <use xlink:href="#DejaVuSans-Oblique-66" transform="translate(2626.416016 0.015625)"/>
    <use xlink:href="#DejaVuSans-3d" transform="translate(2681.103516 0.015625)"/>
    <use xlink:href="#DejaVuSans-35" transform="translate(2784.375 0.015625)"/>
    <use xlink:href="#DejaVuSans-Bold-20" transform="translate(2847.998047 0.015625)"/>
    <use xlink:href="#DejaVuSans-Bold-4d" transform="translate(2882.8125 0.015625)"/>
    <use xlink:href="#DejaVuSans-Bold-48" transform="translate(2982.324219 0.015625)"/>
    <use xlink:href="#DejaVuSans-Bold-7a" transform="translate(3066.015625 0.015625)"/>
    <use xlink:href="#DejaVuSans-Bold-29" transform="translate(3124.21875 0.015625)"/>
   </g>
  </g>
 </g>
 <defs>
  <clipPath id="pccb1581fb8">
   <rect x="57.474063" y="34.2" width="823.68" height="219.130435"/>
  </clipPath>
  <clipPath id="p7a7b84d2e6">
   <rect x="57.474063" y="268.669565" width="823.68" height="219.130435"/>
  </clipPath>
 </defs>
</svg>
